<svg xmlns="http://www.w3.org/2000/svg" viewBox="0 0 800 500"><rect width="800" height="500" rx="16" fill="#FAFAFB" stroke="#E5E7EB" stroke-width="2"/>
<text x="400.0" y="40" font-family="system-ui, -apple-system, sans-serif" font-size="18" font-weight="bold" fill="#1F2937" text-anchor="middle">李宏毅老师核心思想：用多个 Sigmoid 拼凑复杂连续曲线</text>
<line x1="80" y1="420.00" x2="720" y2="420.00" stroke="#E5E7EB" stroke-width="1" stroke-dasharray="4,4"/>
<text x="70" y="424.00" font-family="sans-serif" font-size="12" fill="#4B5563" text-anchor="end">-1.0</text>
<line x1="80" y1="306.67" x2="720" y2="306.67" stroke="#9CA3AF" stroke-width="2" />
<text x="70" y="310.67" font-family="sans-serif" font-size="12" fill="#4B5563" text-anchor="end">0.0</text>
<line x1="80" y1="193.33" x2="720" y2="193.33" stroke="#E5E7EB" stroke-width="1" stroke-dasharray="4,4"/>
<text x="70" y="197.33" font-family="sans-serif" font-size="12" fill="#4B5563" text-anchor="end">1.0</text>
<line x1="80" y1="80.00" x2="720" y2="80.00" stroke="#E5E7EB" stroke-width="1" stroke-dasharray="4,4"/>
<text x="70" y="84.00" font-family="sans-serif" font-size="12" fill="#4B5563" text-anchor="end">2.0</text>
<line x1="80.00" y1="80" x2="80.00" y2="420" stroke="#E5E7EB" stroke-width="1" stroke-dasharray="4,4"/>
<text x="80.00" y="440" font-family="sans-serif" font-size="12" fill="#4B5563" text-anchor="middle">-3</text>
<line x1="186.67" y1="80" x2="186.67" y2="420" stroke="#E5E7EB" stroke-width="1" stroke-dasharray="4,4"/>
<text x="186.67" y="440" font-family="sans-serif" font-size="12" fill="#4B5563" text-anchor="middle">-2</text>
<line x1="293.33" y1="80" x2="293.33" y2="420" stroke="#E5E7EB" stroke-width="1" stroke-dasharray="4,4"/>
<text x="293.33" y="440" font-family="sans-serif" font-size="12" fill="#4B5563" text-anchor="middle">-1</text>
<line x1="400.00" y1="80" x2="400.00" y2="420" stroke="#9CA3AF" stroke-width="2" />
<text x="400.00" y="440" font-family="sans-serif" font-size="12" fill="#4B5563" text-anchor="middle">0</text>
<line x1="506.67" y1="80" x2="506.67" y2="420" stroke="#E5E7EB" stroke-width="1" stroke-dasharray="4,4"/>
<text x="506.67" y="440" font-family="sans-serif" font-size="12" fill="#4B5563" text-anchor="middle">1</text>
<line x1="613.33" y1="80" x2="613.33" y2="420" stroke="#E5E7EB" stroke-width="1" stroke-dasharray="4,4"/>
<text x="613.33" y="440" font-family="sans-serif" font-size="12" fill="#4B5563" text-anchor="middle">2</text>
<line x1="720.00" y1="80" x2="720.00" y2="420" stroke="#E5E7EB" stroke-width="1" stroke-dasharray="4,4"/>
<text x="720.00" y="440" font-family="sans-serif" font-size="12" fill="#4B5563" text-anchor="middle">3</text>
<path d="M 80.00,306.66 L 81.60,306.66 L 83.20,306.66 L 84.80,306.66 L 86.40,306.66 L 88.00,306.66 L 89.60,306.66 L 91.20,306.66 L 92.80,306.66 L 94.40,306.66 L 96.00,306.66 L 97.60,306.65 L 99.20,306.65 L 100.80,306.65 L 102.40,306.65 L 104.00,306.65 L 105.60,306.65 L 107.20,306.65 L 108.80,306.65 L 110.40,306.65 L 112.00,306.64 L 113.60,306.64 L 115.20,306.64 L 116.80,306.64 L 118.40,306.64 L 120.00,306.63 L 121.60,306.63 L 123.20,306.63 L 124.80,306.62 L 126.40,306.62 L 128.00,306.62 L 129.60,306.61 L 131.20,306.61 L 132.80,306.61 L 134.40,306.60 L 136.00,306.60 L 137.60,306.59 L 139.20,306.58 L 140.80,306.58 L 142.40,306.57 L 144.00,306.56 L 145.60,306.56 L 147.20,306.55 L 148.80,306.54 L 150.40,306.53 L 152.00,306.52 L 153.60,306.50 L 155.20,306.49 L 156.80,306.48 L 158.40,306.46 L 160.00,306.45 L 161.60,306.43 L 163.20,306.41 L 164.80,306.39 L 166.40,306.37 L 168.00,306.35 L 169.60,306.32 L 171.20,306.30 L 172.80,306.27 L 174.40,306.24 L 176.00,306.21 L 177.60,306.17 L 179.20,306.13 L 180.80,306.09 L 182.40,306.04 L 184.00,306.00 L 185.60,305.94 L 187.20,305.89 L 188.80,305.83 L 190.40,305.76 L 192.00,305.69 L 193.60,305.62 L 195.20,305.54 L 196.80,305.45 L 198.40,305.36 L 200.00,305.26 L 201.60,305.15 L 203.20,305.03 L 204.80,304.91 L 206.40,304.77 L 208.00,304.63 L 209.60,304.47 L 211.20,304.31 L 212.80,304.13 L 214.40,303.93 L 216.00,303.72 L 217.60,303.50 L 219.20,303.26 L 220.80,303.01 L 222.40,302.73 L 224.00,302.44 L 225.60,302.12 L 227.20,301.78 L 228.80,301.42 L 230.40,301.03 L 232.00,300.61 L 233.60,300.17 L 235.20,299.70 L 236.80,299.19 L 238.40,298.65 L 240.00,298.07 L 241.60,297.45 L 243.20,296.80 L 244.80,296.10 L 246.40,295.36 L 248.00,294.58 L 249.60,293.74 L 251.20,292.86 L 252.80,291.92 L 254.40,290.93 L 256.00,289.89 L 257.60,288.79 L 259.20,287.63 L 260.80,286.41 L 262.40,285.13 L 264.00,283.79 L 265.60,282.39 L 267.20,280.93 L 268.80,279.41 L 270.40,277.83 L 272.00,276.19 L 273.60,274.49 L 275.20,272.73 L 276.80,270.92 L 278.40,269.06 L 280.00,267.15 L 281.60,265.20 L 283.20,263.21 L 284.80,261.18 L 286.40,259.13 L 288.00,257.05 L 289.60,254.95 L 291.20,252.83 L 292.80,250.71 L 294.40,248.58 L 296.00,246.46 L 297.60,244.35 L 299.20,242.26 L 300.80,240.18 L 302.40,238.14 L 304.00,236.12 L 305.60,234.14 L 307.20,232.21 L 308.80,230.31 L 310.40,228.47 L 312.00,226.68 L 313.60,224.94 L 315.20,223.26 L 316.80,221.64 L 318.40,220.07 L 320.00,218.57 L 321.60,217.13 L 323.20,215.75 L 324.80,214.43 L 326.40,213.18 L 328.00,211.98 L 329.60,210.84 L 331.20,209.76 L 332.80,208.73 L 334.40,207.76 L 336.00,206.84 L 337.60,205.98 L 339.20,205.16 L 340.80,204.39 L 342.40,203.66 L 344.00,202.98 L 345.60,202.34 L 347.20,201.73 L 348.80,201.17 L 350.40,200.64 L 352.00,200.14 L 353.60,199.68 L 355.20,199.24 L 356.80,198.84 L 358.40,198.46 L 360.00,198.10 L 361.60,197.77 L 363.20,197.46 L 364.80,197.17 L 366.40,196.91 L 368.00,196.66 L 369.60,196.42 L 371.20,196.20 L 372.80,196.00 L 374.40,195.81 L 376.00,195.64 L 377.60,195.47 L 379.20,195.32 L 380.80,195.18 L 382.40,195.05 L 384.00,194.93 L 385.60,194.81 L 387.20,194.71 L 388.80,194.61 L 390.40,194.52 L 392.00,194.43 L 393.60,194.35 L 395.20,194.28 L 396.80,194.21 L 398.40,194.15 L 400.00,194.09 L 401.60,194.04 L 403.20,193.99 L 404.80,193.94 L 406.40,193.90 L 408.00,193.86 L 409.60,193.82 L 411.20,193.78 L 412.80,193.75 L 414.40,193.72 L 416.00,193.69 L 417.60,193.67 L 419.20,193.64 L 420.80,193.62 L 422.40,193.60 L 424.00,193.58 L 425.60,193.56 L 427.20,193.55 L 428.80,193.53 L 430.40,193.52 L 432.00,193.50 L 433.60,193.49 L 435.20,193.48 L 436.80,193.47 L 438.40,193.46 L 440.00,193.45 L 441.60,193.44 L 443.20,193.43 L 444.80,193.43 L 446.40,193.42 L 448.00,193.41 L 449.60,193.41 L 451.20,193.40 L 452.80,193.40 L 454.40,193.39 L 456.00,193.39 L 457.60,193.38 L 459.20,193.38 L 460.80,193.38 L 462.40,193.37 L 464.00,193.37 L 465.60,193.37 L 467.20,193.37 L 468.80,193.36 L 470.40,193.36 L 472.00,193.36 L 473.60,193.36 L 475.20,193.36 L 476.80,193.35 L 478.40,193.35 L 480.00,193.35 L 481.60,193.35 L 483.20,193.35 L 484.80,193.35 L 486.40,193.35 L 488.00,193.35 L 489.60,193.34 L 491.20,193.34 L 492.80,193.34 L 494.40,193.34 L 496.00,193.34 L 497.60,193.34 L 499.20,193.34 L 500.80,193.34 L 502.40,193.34 L 504.00,193.34 L 505.60,193.34 L 507.20,193.34 L 508.80,193.34 L 510.40,193.34 L 512.00,193.34 L 513.60,193.34 L 515.20,193.34 L 516.80,193.34 L 518.40,193.34 L 520.00,193.34 L 521.60,193.34 L 523.20,193.34 L 524.80,193.34 L 526.40,193.34 L 528.00,193.34 L 529.60,193.34 L 531.20,193.33 L 532.80,193.33 L 534.40,193.33 L 536.00,193.33 L 537.60,193.33 L 539.20,193.33 L 540.80,193.33 L 542.40,193.33 L 544.00,193.33 L 545.60,193.33 L 547.20,193.33 L 548.80,193.33 L 550.40,193.33 L 552.00,193.33 L 553.60,193.33 L 555.20,193.33 L 556.80,193.33 L 558.40,193.33 L 560.00,193.33 L 561.60,193.33 L 563.20,193.33 L 564.80,193.33 L 566.40,193.33 L 568.00,193.33 L 569.60,193.33 L 571.20,193.33 L 572.80,193.33 L 574.40,193.33 L 576.00,193.33 L 577.60,193.33 L 579.20,193.33 L 580.80,193.33 L 582.40,193.33 L 584.00,193.33 L 585.60,193.33 L 587.20,193.33 L 588.80,193.33 L 590.40,193.33 L 592.00,193.33 L 593.60,193.33 L 595.20,193.33 L 596.80,193.33 L 598.40,193.33 L 600.00,193.33 L 601.60,193.33 L 603.20,193.33 L 604.80,193.33 L 606.40,193.33 L 608.00,193.33 L 609.60,193.33 L 611.20,193.33 L 612.80,193.33 L 614.40,193.33 L 616.00,193.33 L 617.60,193.33 L 619.20,193.33 L 620.80,193.33 L 622.40,193.33 L 624.00,193.33 L 625.60,193.33 L 627.20,193.33 L 628.80,193.33 L 630.40,193.33 L 632.00,193.33 L 633.60,193.33 L 635.20,193.33 L 636.80,193.33 L 638.40,193.33 L 640.00,193.33 L 641.60,193.33 L 643.20,193.33 L 644.80,193.33 L 646.40,193.33 L 648.00,193.33 L 649.60,193.33 L 651.20,193.33 L 652.80,193.33 L 654.40,193.33 L 656.00,193.33 L 657.60,193.33 L 659.20,193.33 L 660.80,193.33 L 662.40,193.33 L 664.00,193.33 L 665.60,193.33 L 667.20,193.33 L 668.80,193.33 L 670.40,193.33 L 672.00,193.33 L 673.60,193.33 L 675.20,193.33 L 676.80,193.33 L 678.40,193.33 L 680.00,193.33 L 681.60,193.33 L 683.20,193.33 L 684.80,193.33 L 686.40,193.33 L 688.00,193.33 L 689.60,193.33 L 691.20,193.33 L 692.80,193.33 L 694.40,193.33 L 696.00,193.33 L 697.60,193.33 L 699.20,193.33 L 700.80,193.33 L 702.40,193.33 L 704.00,193.33 L 705.60,193.33 L 707.20,193.33 L 708.80,193.33 L 710.40,193.33 L 712.00,193.33 L 713.60,193.33 L 715.20,193.33 L 716.80,193.33 L 718.40,193.33 L 720.00,193.33" fill="none" stroke="#3B82F6" stroke-width="2" stroke-dasharray="5,5" />
<path d="M 80.00,306.67 L 81.60,306.67 L 83.20,306.67 L 84.80,306.67 L 86.40,306.67 L 88.00,306.67 L 89.60,306.67 L 91.20,306.67 L 92.80,306.67 L 94.40,306.67 L 96.00,306.67 L 97.60,306.67 L 99.20,306.67 L 100.80,306.67 L 102.40,306.67 L 104.00,306.67 L 105.60,306.67 L 107.20,306.67 L 108.80,306.67 L 110.40,306.67 L 112.00,306.67 L 113.60,306.67 L 115.20,306.67 L 116.80,306.67 L 118.40,306.67 L 120.00,306.67 L 121.60,306.67 L 123.20,306.67 L 124.80,306.67 L 126.40,306.67 L 128.00,306.67 L 129.60,306.67 L 131.20,306.67 L 132.80,306.67 L 134.40,306.67 L 136.00,306.67 L 137.60,306.67 L 139.20,306.67 L 140.80,306.67 L 142.40,306.67 L 144.00,306.67 L 145.60,306.67 L 147.20,306.67 L 148.80,306.67 L 150.40,306.67 L 152.00,306.67 L 153.60,306.67 L 155.20,306.67 L 156.80,306.67 L 158.40,306.67 L 160.00,306.67 L 161.60,306.67 L 163.20,306.67 L 164.80,306.67 L 166.40,306.67 L 168.00,306.67 L 169.60,306.67 L 171.20,306.67 L 172.80,306.67 L 174.40,306.67 L 176.00,306.67 L 177.60,306.67 L 179.20,306.67 L 180.80,306.67 L 182.40,306.67 L 184.00,306.67 L 185.60,306.67 L 187.20,306.67 L 188.80,306.68 L 190.40,306.68 L 192.00,306.68 L 193.60,306.68 L 195.20,306.68 L 196.80,306.68 L 198.40,306.68 L 200.00,306.68 L 201.60,306.68 L 203.20,306.68 L 204.80,306.68 L 206.40,306.69 L 208.00,306.69 L 209.60,306.69 L 211.20,306.69 L 212.80,306.69 L 214.40,306.69 L 216.00,306.70 L 217.60,306.70 L 219.20,306.70 L 220.80,306.70 L 222.40,306.71 L 224.00,306.71 L 225.60,306.71 L 227.20,306.72 L 228.80,306.72 L 230.40,306.73 L 232.00,306.73 L 233.60,306.74 L 235.20,306.74 L 236.80,306.75 L 238.40,306.75 L 240.00,306.76 L 241.60,306.77 L 243.20,306.78 L 244.80,306.78 L 246.40,306.79 L 248.00,306.80 L 249.60,306.81 L 251.20,306.83 L 252.80,306.84 L 254.40,306.85 L 256.00,306.87 L 257.60,306.88 L 259.20,306.90 L 260.80,306.92 L 262.40,306.93 L 264.00,306.96 L 265.60,306.98 L 267.20,307.00 L 268.80,307.03 L 270.40,307.06 L 272.00,307.09 L 273.60,307.12 L 275.20,307.15 L 276.80,307.19 L 278.40,307.23 L 280.00,307.28 L 281.60,307.32 L 283.20,307.38 L 284.80,307.43 L 286.40,307.49 L 288.00,307.55 L 289.60,307.62 L 291.20,307.70 L 292.80,307.78 L 294.40,307.86 L 296.00,307.95 L 297.60,308.05 L 299.20,308.16 L 300.80,308.28 L 302.40,308.40 L 304.00,308.53 L 305.60,308.68 L 307.20,308.83 L 308.80,309.00 L 310.40,309.18 L 312.00,309.37 L 313.60,309.58 L 315.20,309.80 L 316.80,310.04 L 318.40,310.30 L 320.00,310.57 L 321.60,310.87 L 323.20,311.19 L 324.80,311.53 L 326.40,311.90 L 328.00,312.29 L 329.60,312.71 L 331.20,313.17 L 332.80,313.65 L 334.40,314.17 L 336.00,314.73 L 337.60,315.33 L 339.20,315.96 L 340.80,316.64 L 342.40,317.37 L 344.00,318.15 L 345.60,318.98 L 347.20,319.86 L 348.80,320.81 L 350.40,321.81 L 352.00,322.88 L 353.60,324.01 L 355.20,325.21 L 356.80,326.49 L 358.40,327.84 L 360.00,329.27 L 361.60,330.78 L 363.20,332.38 L 364.80,334.06 L 366.40,335.82 L 368.00,337.68 L 369.60,339.63 L 371.20,341.66 L 372.80,343.80 L 374.40,346.02 L 376.00,348.33 L 377.60,350.73 L 379.20,353.23 L 380.80,355.81 L 382.40,358.47 L 384.00,361.21 L 385.60,364.02 L 387.20,366.91 L 388.80,369.85 L 390.40,372.86 L 392.00,375.91 L 393.60,379.01 L 395.20,382.14 L 396.80,385.30 L 398.40,388.48 L 400.00,391.67 L 401.60,394.85 L 403.20,398.03 L 404.80,401.19 L 406.40,404.32 L 408.00,407.42 L 409.60,410.48 L 411.20,413.48 L 412.80,416.43 L 414.40,419.31 L 416.00,422.13 L 417.60,424.87 L 419.20,427.53 L 420.80,430.11 L 422.40,432.60 L 424.00,435.00 L 425.60,437.32 L 427.20,439.54 L 428.80,441.67 L 430.40,443.71 L 432.00,445.65 L 433.60,447.51 L 435.20,449.28 L 436.80,450.96 L 438.40,452.55 L 440.00,454.06 L 441.60,455.49 L 443.20,456.84 L 444.80,458.12 L 446.40,459.32 L 448.00,460.46 L 449.60,461.52 L 451.20,462.53 L 452.80,463.47 L 454.40,464.35 L 456.00,465.18 L 457.60,465.96 L 459.20,466.69 L 460.80,467.37 L 462.40,468.01 L 464.00,468.60 L 465.60,469.16 L 467.20,469.68 L 468.80,470.17 L 470.40,470.62 L 472.00,471.04 L 473.60,471.44 L 475.20,471.80 L 476.80,472.15 L 478.40,472.46 L 480.00,472.76 L 481.60,473.04 L 483.20,473.29 L 484.80,473.53 L 486.40,473.76 L 488.00,473.96 L 489.60,474.16 L 491.20,474.33 L 492.80,474.50 L 494.40,474.66 L 496.00,474.80 L 497.60,474.93 L 499.20,475.06 L 500.80,475.17 L 502.40,475.28 L 504.00,475.38 L 505.60,475.47 L 507.20,475.56 L 508.80,475.64 L 510.40,475.71 L 512.00,475.78 L 513.60,475.84 L 515.20,475.90 L 516.80,475.96 L 518.40,476.01 L 520.00,476.06 L 521.60,476.10 L 523.20,476.14 L 524.80,476.18 L 526.40,476.21 L 528.00,476.25 L 529.60,476.28 L 531.20,476.30 L 532.80,476.33 L 534.40,476.36 L 536.00,476.38 L 537.60,476.40 L 539.20,476.42 L 540.80,476.44 L 542.40,476.45 L 544.00,476.47 L 545.60,476.48 L 547.20,476.50 L 548.80,476.51 L 550.40,476.52 L 552.00,476.53 L 553.60,476.54 L 555.20,476.55 L 556.80,476.56 L 558.40,476.57 L 560.00,476.57 L 561.60,476.58 L 563.20,476.59 L 564.80,476.59 L 566.40,476.60 L 568.00,476.60 L 569.60,476.61 L 571.20,476.61 L 572.80,476.62 L 574.40,476.62 L 576.00,476.62 L 577.60,476.63 L 579.20,476.63 L 580.80,476.63 L 582.40,476.63 L 584.00,476.64 L 585.60,476.64 L 587.20,476.64 L 588.80,476.64 L 590.40,476.64 L 592.00,476.65 L 593.60,476.65 L 595.20,476.65 L 596.80,476.65 L 598.40,476.65 L 600.00,476.65 L 601.60,476.65 L 603.20,476.65 L 604.80,476.66 L 606.40,476.66 L 608.00,476.66 L 609.60,476.66 L 611.20,476.66 L 612.80,476.66 L 614.40,476.66 L 616.00,476.66 L 617.60,476.66 L 619.20,476.66 L 620.80,476.66 L 622.40,476.66 L 624.00,476.66 L 625.60,476.66 L 627.20,476.66 L 628.80,476.66 L 630.40,476.66 L 632.00,476.66 L 633.60,476.66 L 635.20,476.66 L 636.80,476.66 L 638.40,476.66 L 640.00,476.66 L 641.60,476.66 L 643.20,476.66 L 644.80,476.66 L 646.40,476.67 L 648.00,476.67 L 649.60,476.67 L 651.20,476.67 L 652.80,476.67 L 654.40,476.67 L 656.00,476.67 L 657.60,476.67 L 659.20,476.67 L 660.80,476.67 L 662.40,476.67 L 664.00,476.67 L 665.60,476.67 L 667.20,476.67 L 668.80,476.67 L 670.40,476.67 L 672.00,476.67 L 673.60,476.67 L 675.20,476.67 L 676.80,476.67 L 678.40,476.67 L 680.00,476.67 L 681.60,476.67 L 683.20,476.67 L 684.80,476.67 L 686.40,476.67 L 688.00,476.67 L 689.60,476.67 L 691.20,476.67 L 692.80,476.67 L 694.40,476.67 L 696.00,476.67 L 697.60,476.67 L 699.20,476.67 L 700.80,476.67 L 702.40,476.67 L 704.00,476.67 L 705.60,476.67 L 707.20,476.67 L 708.80,476.67 L 710.40,476.67 L 712.00,476.67 L 713.60,476.67 L 715.20,476.67 L 716.80,476.67 L 718.40,476.67 L 720.00,476.67" fill="none" stroke="#10B981" stroke-width="2" stroke-dasharray="5,5" />
<path d="M 80.00,306.67 L 81.60,306.67 L 83.20,306.67 L 84.80,306.67 L 86.40,306.67 L 88.00,306.67 L 89.60,306.67 L 91.20,306.67 L 92.80,306.67 L 94.40,306.67 L 96.00,306.67 L 97.60,306.67 L 99.20,306.67 L 100.80,306.67 L 102.40,306.67 L 104.00,306.67 L 105.60,306.67 L 107.20,306.67 L 108.80,306.67 L 110.40,306.67 L 112.00,306.67 L 113.60,306.67 L 115.20,306.67 L 116.80,306.67 L 118.40,306.67 L 120.00,306.67 L 121.60,306.67 L 123.20,306.67 L 124.80,306.67 L 126.40,306.67 L 128.00,306.67 L 129.60,306.67 L 131.20,306.67 L 132.80,306.67 L 134.40,306.67 L 136.00,306.67 L 137.60,306.67 L 139.20,306.67 L 140.80,306.67 L 142.40,306.67 L 144.00,306.67 L 145.60,306.67 L 147.20,306.67 L 148.80,306.67 L 150.40,306.67 L 152.00,306.67 L 153.60,306.67 L 155.20,306.67 L 156.80,306.67 L 158.40,306.67 L 160.00,306.67 L 161.60,306.67 L 163.20,306.67 L 164.80,306.67 L 166.40,306.67 L 168.00,306.67 L 169.60,306.67 L 171.20,306.67 L 172.80,306.67 L 174.40,306.67 L 176.00,306.67 L 177.60,306.67 L 179.20,306.67 L 180.80,306.67 L 182.40,306.67 L 184.00,306.67 L 185.60,306.67 L 187.20,306.67 L 188.80,306.67 L 190.40,306.67 L 192.00,306.67 L 193.60,306.67 L 195.20,306.67 L 196.80,306.67 L 198.40,306.67 L 200.00,306.67 L 201.60,306.67 L 203.20,306.67 L 204.80,306.67 L 206.40,306.67 L 208.00,306.67 L 209.60,306.67 L 211.20,306.67 L 212.80,306.67 L 214.40,306.67 L 216.00,306.67 L 217.60,306.67 L 219.20,306.67 L 220.80,306.67 L 222.40,306.67 L 224.00,306.67 L 225.60,306.67 L 227.20,306.67 L 228.80,306.67 L 230.40,306.67 L 232.00,306.67 L 233.60,306.67 L 235.20,306.67 L 236.80,306.67 L 238.40,306.67 L 240.00,306.67 L 241.60,306.67 L 243.20,306.67 L 244.80,306.67 L 246.40,306.67 L 248.00,306.67 L 249.60,306.67 L 251.20,306.67 L 252.80,306.67 L 254.40,306.67 L 256.00,306.67 L 257.60,306.67 L 259.20,306.67 L 260.80,306.67 L 262.40,306.67 L 264.00,306.67 L 265.60,306.67 L 267.20,306.67 L 268.80,306.67 L 270.40,306.67 L 272.00,306.67 L 273.60,306.67 L 275.20,306.66 L 276.80,306.66 L 278.40,306.66 L 280.00,306.66 L 281.60,306.66 L 283.20,306.66 L 284.80,306.66 L 286.40,306.66 L 288.00,306.66 L 289.60,306.66 L 291.20,306.66 L 292.80,306.66 L 294.40,306.66 L 296.00,306.66 L 297.60,306.66 L 299.20,306.66 L 300.80,306.66 L 302.40,306.66 L 304.00,306.66 L 305.60,306.66 L 307.20,306.66 L 308.80,306.66 L 310.40,306.66 L 312.00,306.66 L 313.60,306.66 L 315.20,306.66 L 316.80,306.65 L 318.40,306.65 L 320.00,306.65 L 321.60,306.65 L 323.20,306.65 L 324.80,306.65 L 326.40,306.65 L 328.00,306.65 L 329.60,306.64 L 331.20,306.64 L 332.80,306.64 L 334.40,306.64 L 336.00,306.64 L 337.60,306.63 L 339.20,306.63 L 340.80,306.63 L 342.40,306.63 L 344.00,306.62 L 345.60,306.62 L 347.20,306.62 L 348.80,306.61 L 350.40,306.61 L 352.00,306.60 L 353.60,306.60 L 355.20,306.59 L 356.80,306.59 L 358.40,306.58 L 360.00,306.57 L 361.60,306.57 L 363.20,306.56 L 364.80,306.55 L 366.40,306.54 L 368.00,306.53 L 369.60,306.52 L 371.20,306.51 L 372.80,306.50 L 374.40,306.48 L 376.00,306.47 L 377.60,306.45 L 379.20,306.44 L 380.80,306.42 L 382.40,306.40 L 384.00,306.38 L 385.60,306.36 L 387.20,306.33 L 388.80,306.31 L 390.40,306.28 L 392.00,306.25 L 393.60,306.22 L 395.20,306.18 L 396.80,306.14 L 398.40,306.10 L 400.00,306.06 L 401.60,306.01 L 403.20,305.96 L 404.80,305.91 L 406.40,305.85 L 408.00,305.79 L 409.60,305.72 L 411.20,305.65 L 412.80,305.57 L 414.40,305.48 L 416.00,305.39 L 417.60,305.29 L 419.20,305.19 L 420.80,305.08 L 422.40,304.95 L 424.00,304.82 L 425.60,304.68 L 427.20,304.53 L 428.80,304.37 L 430.40,304.20 L 432.00,304.01 L 433.60,303.81 L 435.20,303.59 L 436.80,303.36 L 438.40,303.12 L 440.00,302.85 L 441.60,302.57 L 443.20,302.26 L 444.80,301.94 L 446.40,301.59 L 448.00,301.22 L 449.60,300.82 L 451.20,300.40 L 452.80,299.95 L 454.40,299.46 L 456.00,298.95 L 457.60,298.40 L 459.20,297.82 L 460.80,297.21 L 462.40,296.55 L 464.00,295.86 L 465.60,295.12 L 467.20,294.35 L 468.80,293.53 L 470.40,292.66 L 472.00,291.75 L 473.60,290.79 L 475.20,289.79 L 476.80,288.73 L 478.40,287.63 L 480.00,286.48 L 481.60,285.27 L 483.20,284.02 L 484.80,282.73 L 486.40,281.38 L 488.00,279.99 L 489.60,278.56 L 491.20,277.08 L 492.80,275.57 L 494.40,274.02 L 496.00,272.44 L 497.60,270.82 L 499.20,269.19 L 500.80,267.53 L 502.40,265.85 L 504.00,264.16 L 505.60,262.47 L 507.20,260.77 L 508.80,259.07 L 510.40,257.38 L 512.00,255.70 L 513.60,254.03 L 515.20,252.39 L 516.80,250.76 L 518.40,249.17 L 520.00,247.61 L 521.60,246.08 L 523.20,244.60 L 524.80,243.15 L 526.40,241.74 L 528.00,240.38 L 529.60,239.07 L 531.20,237.80 L 532.80,236.59 L 534.40,235.42 L 536.00,234.30 L 537.60,233.23 L 539.20,232.20 L 540.80,231.23 L 542.40,230.30 L 544.00,229.42 L 545.60,228.59 L 547.20,227.80 L 548.80,227.05 L 550.40,226.34 L 552.00,225.67 L 553.60,225.04 L 555.20,224.45 L 556.80,223.89 L 558.40,223.37 L 560.00,222.88 L 561.60,222.42 L 563.20,221.98 L 564.80,221.58 L 566.40,221.20 L 568.00,220.84 L 569.60,220.51 L 571.20,220.20 L 572.80,219.91 L 574.40,219.64 L 576.00,219.38 L 577.60,219.15 L 579.20,218.93 L 580.80,218.72 L 582.40,218.53 L 584.00,218.35 L 585.60,218.19 L 587.20,218.03 L 588.80,217.89 L 590.40,217.76 L 592.00,217.63 L 593.60,217.51 L 595.20,217.41 L 596.80,217.31 L 598.40,217.21 L 600.00,217.13 L 601.60,217.05 L 603.20,216.97 L 604.80,216.90 L 606.40,216.84 L 608.00,216.78 L 609.60,216.72 L 611.20,216.67 L 612.80,216.62 L 614.40,216.58 L 616.00,216.54 L 617.60,216.50 L 619.20,216.46 L 620.80,216.43 L 622.40,216.40 L 624.00,216.37 L 625.60,216.34 L 627.20,216.32 L 628.80,216.29 L 630.40,216.27 L 632.00,216.25 L 633.60,216.24 L 635.20,216.22 L 636.80,216.20 L 638.40,216.19 L 640.00,216.17 L 641.60,216.16 L 643.20,216.15 L 644.80,216.14 L 646.40,216.13 L 648.00,216.12 L 649.60,216.11 L 651.20,216.10 L 652.80,216.10 L 654.40,216.09 L 656.00,216.08 L 657.60,216.08 L 659.20,216.07 L 660.80,216.07 L 662.40,216.06 L 664.00,216.06 L 665.60,216.05 L 667.20,216.05 L 668.80,216.05 L 670.40,216.04 L 672.00,216.04 L 673.60,216.04 L 675.20,216.03 L 676.80,216.03 L 678.40,216.03 L 680.00,216.03 L 681.60,216.02 L 683.20,216.02 L 684.80,216.02 L 686.40,216.02 L 688.00,216.02 L 689.60,216.02 L 691.20,216.02 L 692.80,216.01 L 694.40,216.01 L 696.00,216.01 L 697.60,216.01 L 699.20,216.01 L 700.80,216.01 L 702.40,216.01 L 704.00,216.01 L 705.60,216.01 L 707.20,216.01 L 708.80,216.01 L 710.40,216.01 L 712.00,216.01 L 713.60,216.01 L 715.20,216.01 L 716.80,216.00 L 718.40,216.00 L 720.00,216.00" fill="none" stroke="#8B5CF6" stroke-width="2" stroke-dasharray="5,5" />
<path d="M 80.00,306.66 L 81.60,306.66 L 83.20,306.66 L 84.80,306.66 L 86.40,306.66 L 88.00,306.66 L 89.60,306.66 L 91.20,306.66 L 92.80,306.66 L 94.40,306.66 L 96.00,306.66 L 97.60,306.66 L 99.20,306.65 L 100.80,306.65 L 102.40,306.65 L 104.00,306.65 L 105.60,306.65 L 107.20,306.65 L 108.80,306.65 L 110.40,306.65 L 112.00,306.64 L 113.60,306.64 L 115.20,306.64 L 116.80,306.64 L 118.40,306.64 L 120.00,306.63 L 121.60,306.63 L 123.20,306.63 L 124.80,306.63 L 126.40,306.62 L 128.00,306.62 L 129.60,306.61 L 131.20,306.61 L 132.80,306.61 L 134.40,306.60 L 136.00,306.60 L 137.60,306.59 L 139.20,306.59 L 140.80,306.58 L 142.40,306.57 L 144.00,306.56 L 145.60,306.56 L 147.20,306.55 L 148.80,306.54 L 150.40,306.53 L 152.00,306.52 L 153.60,306.51 L 155.20,306.49 L 156.80,306.48 L 158.40,306.47 L 160.00,306.45 L 161.60,306.43 L 163.20,306.42 L 164.80,306.40 L 166.40,306.38 L 168.00,306.35 L 169.60,306.33 L 171.20,306.30 L 172.80,306.27 L 174.40,306.24 L 176.00,306.21 L 177.60,306.17 L 179.20,306.14 L 180.80,306.10 L 182.40,306.05 L 184.00,306.00 L 185.60,305.95 L 187.20,305.90 L 188.80,305.84 L 190.40,305.77 L 192.00,305.70 L 193.60,305.63 L 195.20,305.55 L 196.80,305.46 L 198.40,305.37 L 200.00,305.27 L 201.60,305.16 L 203.20,305.05 L 204.80,304.93 L 206.40,304.79 L 208.00,304.65 L 209.60,304.50 L 211.20,304.33 L 212.80,304.15 L 214.40,303.96 L 216.00,303.76 L 217.60,303.53 L 219.20,303.30 L 220.80,303.04 L 222.40,302.77 L 224.00,302.48 L 225.60,302.17 L 227.20,301.83 L 228.80,301.47 L 230.40,301.09 L 232.00,300.68 L 233.60,300.24 L 235.20,299.77 L 236.80,299.27 L 238.40,298.73 L 240.00,298.16 L 241.60,297.56 L 243.20,296.91 L 244.80,296.22 L 246.40,295.49 L 248.00,294.71 L 249.60,293.89 L 251.20,293.01 L 252.80,292.09 L 254.40,291.12 L 256.00,290.09 L 257.60,289.00 L 259.20,287.86 L 260.80,286.66 L 262.40,285.40 L 264.00,284.08 L 265.60,282.71 L 267.20,281.27 L 268.80,279.77 L 270.40,278.22 L 272.00,276.61 L 273.60,274.94 L 275.20,273.22 L 276.80,271.45 L 278.40,269.63 L 280.00,267.76 L 281.60,265.86 L 283.20,263.92 L 284.80,261.95 L 286.40,259.95 L 288.00,257.93 L 289.60,255.90 L 291.20,253.86 L 292.80,251.81 L 294.40,249.78 L 296.00,247.75 L 297.60,245.73 L 299.20,243.75 L 300.80,241.79 L 302.40,239.86 L 304.00,237.98 L 305.60,236.15 L 307.20,234.36 L 308.80,232.64 L 310.40,230.97 L 312.00,229.37 L 313.60,227.84 L 315.20,226.38 L 316.80,225.00 L 318.40,223.69 L 320.00,222.46 L 321.60,221.32 L 323.20,220.26 L 324.80,219.28 L 326.40,218.39 L 328.00,217.58 L 329.60,216.86 L 331.20,216.23 L 332.80,215.69 L 334.40,215.24 L 336.00,214.87 L 337.60,214.60 L 339.20,214.42 L 340.80,214.33 L 342.40,214.33 L 344.00,214.42 L 345.60,214.60 L 347.20,214.88 L 348.80,215.25 L 350.40,215.72 L 352.00,216.29 L 353.60,216.95 L 355.20,217.72 L 356.80,218.58 L 358.40,219.55 L 360.00,220.61 L 361.60,221.79 L 363.20,223.06 L 364.80,224.45 L 366.40,225.94 L 368.00,227.53 L 369.60,229.23 L 371.20,231.04 L 372.80,232.96 L 374.40,234.98 L 376.00,237.10 L 377.60,239.33 L 379.20,241.65 L 380.80,244.07 L 382.40,246.58 L 384.00,249.18 L 385.60,251.86 L 387.20,254.61 L 388.80,257.44 L 390.40,260.32 L 392.00,263.26 L 393.60,266.25 L 395.20,269.27 L 396.80,272.33 L 398.40,275.40 L 400.00,278.49 L 401.60,281.57 L 403.20,284.65 L 404.80,287.70 L 406.40,290.73 L 408.00,293.73 L 409.60,296.68 L 411.20,299.58 L 412.80,302.41 L 414.40,305.18 L 416.00,307.88 L 417.60,310.49 L 419.20,313.03 L 420.80,315.47 L 422.40,317.82 L 424.00,320.07 L 425.60,322.23 L 427.20,324.28 L 428.80,326.24 L 430.40,328.09 L 432.00,329.83 L 433.60,331.48 L 435.20,333.02 L 436.80,334.46 L 438.40,335.79 L 440.00,337.03 L 441.60,338.17 L 443.20,339.21 L 444.80,340.15 L 446.40,341.00 L 448.00,341.76 L 449.60,342.42 L 451.20,342.99 L 452.80,343.48 L 454.40,343.88 L 456.00,344.19 L 457.60,344.42 L 459.20,344.56 L 460.80,344.62 L 462.40,344.60 L 464.00,344.50 L 465.60,344.32 L 467.20,344.06 L 468.80,343.72 L 470.40,343.31 L 472.00,342.82 L 473.60,342.25 L 475.20,341.61 L 476.80,340.90 L 478.40,340.11 L 480.00,339.25 L 481.60,338.33 L 483.20,337.33 L 484.80,336.27 L 486.40,335.15 L 488.00,333.97 L 489.60,332.72 L 491.20,331.43 L 492.80,330.08 L 494.40,328.68 L 496.00,327.24 L 497.60,325.76 L 499.20,324.25 L 500.80,322.71 L 502.40,321.14 L 504.00,319.55 L 505.60,317.94 L 507.20,316.33 L 508.80,314.71 L 510.40,313.09 L 512.00,311.48 L 513.60,309.88 L 515.20,308.29 L 516.80,306.73 L 518.40,305.18 L 520.00,303.67 L 521.60,302.19 L 523.20,300.74 L 524.80,299.33 L 526.40,297.96 L 528.00,296.63 L 529.60,295.35 L 531.20,294.11 L 532.80,292.92 L 534.40,291.77 L 536.00,290.68 L 537.60,289.63 L 539.20,288.62 L 540.80,287.67 L 542.40,286.76 L 544.00,285.89 L 545.60,285.07 L 547.20,284.29 L 548.80,283.56 L 550.40,282.86 L 552.00,282.20 L 553.60,281.58 L 555.20,281.00 L 556.80,280.45 L 558.40,279.94 L 560.00,279.45 L 561.60,279.00 L 563.20,278.57 L 564.80,278.17 L 566.40,277.79 L 568.00,277.44 L 569.60,277.12 L 571.20,276.81 L 572.80,276.52 L 574.40,276.26 L 576.00,276.01 L 577.60,275.77 L 579.20,275.56 L 580.80,275.35 L 582.40,275.17 L 584.00,274.99 L 585.60,274.83 L 587.20,274.67 L 588.80,274.53 L 590.40,274.40 L 592.00,274.28 L 593.60,274.16 L 595.20,274.06 L 596.80,273.96 L 598.40,273.86 L 600.00,273.78 L 601.60,273.70 L 603.20,273.63 L 604.80,273.56 L 606.40,273.49 L 608.00,273.43 L 609.60,273.38 L 611.20,273.33 L 612.80,273.28 L 614.40,273.24 L 616.00,273.20 L 617.60,273.16 L 619.20,273.12 L 620.80,273.09 L 622.40,273.06 L 624.00,273.03 L 625.60,273.00 L 627.20,272.98 L 628.80,272.96 L 630.40,272.94 L 632.00,272.92 L 633.60,272.90 L 635.20,272.88 L 636.80,272.87 L 638.40,272.85 L 640.00,272.84 L 641.60,272.83 L 643.20,272.82 L 644.80,272.80 L 646.40,272.79 L 648.00,272.79 L 649.60,272.78 L 651.20,272.77 L 652.80,272.76 L 654.40,272.75 L 656.00,272.75 L 657.60,272.74 L 659.20,272.74 L 660.80,272.73 L 662.40,272.73 L 664.00,272.72 L 665.60,272.72 L 667.20,272.71 L 668.80,272.71 L 670.40,272.71 L 672.00,272.71 L 673.60,272.70 L 675.20,272.70 L 676.80,272.70 L 678.40,272.70 L 680.00,272.69 L 681.60,272.69 L 683.20,272.69 L 684.80,272.69 L 686.40,272.69 L 688.00,272.68 L 689.60,272.68 L 691.20,272.68 L 692.80,272.68 L 694.40,272.68 L 696.00,272.68 L 697.60,272.68 L 699.20,272.68 L 700.80,272.68 L 702.40,272.68 L 704.00,272.68 L 705.60,272.67 L 707.20,272.67 L 708.80,272.67 L 710.40,272.67 L 712.00,272.67 L 713.60,272.67 L 715.20,272.67 L 716.80,272.67 L 718.40,272.67 L 720.00,272.67" fill="none" stroke="#EF4444" stroke-width="3.5" stroke-linecap="round" />
<rect x="100" y="60" width="20" height="3" fill="#3B82F6"/>
<text x="130" y="65" font-family="sans-serif" font-size="12" fill="#374151">Sigmoid 1 (平移并拉伸)</text>
<rect x="280" y="60" width="20" height="3" fill="#10B981"/>
<text x="310" y="65" font-family="sans-serif" font-size="12" fill="#374151">Sigmoid 2 (反向倒置)</text>
<rect x="460" y="60" width="20" height="3" fill="#8B5CF6"/>
<text x="490" y="65" font-family="sans-serif" font-size="12" fill="#374151">Sigmoid 3 (平移微调)</text>
<rect x="630" y="58" width="20" height="5" fill="#EF4444"/>
<text x="660" y="65" font-family="sans-serif" font-size="12" font-weight="bold" fill="#EF4444">组合最终曲线</text></svg>