<svg width="800" height="500" viewBox="0 0 800 500" xmlns="http://www.w3.org/2000/svg">
<rect width="100%" height="100%" fill="#ffffff" />
<text x="400.0" y="30" font-family="sans-serif" font-size="20" text-anchor="middle" font-weight="bold">Logistic Function 参数对比</text>
<line x1="60" y1="383.33333333333337" x2="750" y2="383.33333333333337" stroke="#333" stroke-width="2" />
<line x1="405.0" y1="50" x2="405.0" y2="450" stroke="#333" stroke-width="2" />
<line x1="60.0" y1="50" x2="60.0" y2="450" stroke="#ddd" stroke-width="1" />
<text x="60.0" y="470" font-family="sans-serif" font-size="12" text-anchor="middle" fill="#666">-10.0</text>
<line x1="129.0" y1="50" x2="129.0" y2="450" stroke="#ddd" stroke-width="1" />
<text x="129.0" y="470" font-family="sans-serif" font-size="12" text-anchor="middle" fill="#666">-8.0</text>
<line x1="198.0" y1="50" x2="198.0" y2="450" stroke="#ddd" stroke-width="1" />
<text x="198.0" y="470" font-family="sans-serif" font-size="12" text-anchor="middle" fill="#666">-6.0</text>
<line x1="267.0" y1="50" x2="267.0" y2="450" stroke="#ddd" stroke-width="1" />
<text x="267.0" y="470" font-family="sans-serif" font-size="12" text-anchor="middle" fill="#666">-4.0</text>
<line x1="336.0" y1="50" x2="336.0" y2="450" stroke="#ddd" stroke-width="1" />
<text x="336.0" y="470" font-family="sans-serif" font-size="12" text-anchor="middle" fill="#666">-2.0</text>
<line x1="405.0" y1="50" x2="405.0" y2="450" stroke="#ddd" stroke-width="1" />
<text x="405.0" y="470" font-family="sans-serif" font-size="12" text-anchor="middle" fill="#666">0.0</text>
<line x1="474.0" y1="50" x2="474.0" y2="450" stroke="#ddd" stroke-width="1" />
<text x="474.0" y="470" font-family="sans-serif" font-size="12" text-anchor="middle" fill="#666">2.0</text>
<line x1="543.0" y1="50" x2="543.0" y2="450" stroke="#ddd" stroke-width="1" />
<text x="543.0" y="470" font-family="sans-serif" font-size="12" text-anchor="middle" fill="#666">4.0</text>
<line x1="612.0" y1="50" x2="612.0" y2="450" stroke="#ddd" stroke-width="1" />
<text x="612.0" y="470" font-family="sans-serif" font-size="12" text-anchor="middle" fill="#666">6.0</text>
<line x1="681.0" y1="50" x2="681.0" y2="450" stroke="#ddd" stroke-width="1" />
<text x="681.0" y="470" font-family="sans-serif" font-size="12" text-anchor="middle" fill="#666">8.0</text>
<line x1="750.0" y1="50" x2="750.0" y2="450" stroke="#ddd" stroke-width="1" />
<text x="750.0" y="470" font-family="sans-serif" font-size="12" text-anchor="middle" fill="#666">10.0</text>
<line x1="60" y1="450.0" x2="750" y2="450.0" stroke="#ddd" stroke-width="1" />
<text x="50" y="454.0" font-family="sans-serif" font-size="12" text-anchor="end" fill="#666">-0.5</text>
<line x1="60" y1="370.0" x2="750" y2="370.0" stroke="#ddd" stroke-width="1" />
<text x="50" y="374.0" font-family="sans-serif" font-size="12" text-anchor="end" fill="#666">0.1</text>
<line x1="60" y1="290.0" x2="750" y2="290.0" stroke="#ddd" stroke-width="1" />
<text x="50" y="294.0" font-family="sans-serif" font-size="12" text-anchor="end" fill="#666">0.7</text>
<line x1="60" y1="210.0" x2="750" y2="210.0" stroke="#ddd" stroke-width="1" />
<text x="50" y="214.0" font-family="sans-serif" font-size="12" text-anchor="end" fill="#666">1.3</text>
<line x1="60" y1="129.99999999999994" x2="750" y2="129.99999999999994" stroke="#ddd" stroke-width="1" />
<text x="50" y="133.99999999999994" font-family="sans-serif" font-size="12" text-anchor="end" fill="#666">1.9</text>
<line x1="60" y1="50.0" x2="750" y2="50.0" stroke="#ddd" stroke-width="1" />
<text x="50" y="54.0" font-family="sans-serif" font-size="12" text-anchor="end" fill="#666">2.5</text>
<polyline points="60.0,383.327280284173 63.44999999999999,383.3266437113755 66.89999999999998,383.32594019670364 70.35000000000002,383.32516270138444 73.80000000000001,383.32430344671735 77.25,383.32335383633193 80.69999999999999,383.3223043702864 84.14999999999998,383.321144550153 87.60000000000002,383.31986277414563 91.05000000000001,383.31844622124936 94.5,383.31688072320185 97.94999999999999,383.31515062305607 101.39999999999998,383.31323861892537 104.85000000000002,383.311125591363 108.30000000000001,383.30879041267156 111.75,383.3062097362593 115.19999999999999,383.3033577639689 118.64999999999998,383.3002059890881 122.10000000000002,383.29672291251984 125.55000000000001,383.2928737293295 129.0,383.2886199826045 132.45,383.2839191812498 135.9,383.27872437800187 139.35000000000002,383.27298370356795 142.8,383.2666398523894 146.25,383.2596295150769 149.7,383.2518827520754 153.15,383.24332230258227 156.60000000000002,383.2338628221551 160.05,383.22341004181357 163.5,383.21185984074657 166.95,383.1990972239886 170.4,383.1849951956186 173.85000000000002,383.169413517163 177.3,383.1521973399428 180.75,383.13317569910174 184.2,383.11215985597676 187.64999999999998,383.0889414743343 191.1,383.06329061479335 194.55,383.0349535304965 198.0,383.00365024578207 201.45,382.96907189826516 204.9,382.9308778233722 208.35,382.88869235901154 211.8,382.84210134674186 215.25,382.7906483045472 218.70000000000002,382.73383024520786 222.14999999999998,382.67109311332575 225.6,382.6018268134066 229.05,382.52535980112214 232.5,382.44095321009536 235.95000000000002,382.34779448742904 239.4,382.244990512912 242.85000000000002,382.1315601796203 246.3,382.00642641774607 249.75000000000003,381.8684076492542 253.20000000000002,381.71620866876344 256.65,381.5484109563114 260.1,381.3634624408969 263.54999999999995,381.15966675047457 267.0,380.9351720050545 270.45,380.68795923545633 273.9,380.4158305418493 277.35,380.1163971443108 280.8,379.78706752308454 284.25,379.42503589981914 287.70000000000005,379.0272713735399 291.15,378.59050809698186 294.6,378.1112369604314 298.04999999999995,377.5856993411885 301.5,377.00988357632446 304.95,376.37952492287764 308.4,375.6901098801508 311.85,374.93688585906716 315.29999999999995,374.1148772875538 318.75,373.2189093305009 322.2,372.243640467477 325.65000000000003,371.18360519801917 329.1,370.0332681173753 332.55,368.7870905072516 336.0,367.43961039705096 339.45000000000005,365.98553675160025 342.9,364.4198580132683 346.34999999999997,362.73796465552874 349.8,360.93578468452324 353.25,359.0099301591525 356.7,356.9578518078109 360.15,354.77799773900784 363.6,352.4699711332023 367.05,350.0346807460157 370.5,347.4744771506673 373.95,344.7932670166672 377.40000000000003,341.9965974836816 380.85,339.09170295575547 384.29999999999995,336.0875074967728 387.75,332.9945774935806 391.2,329.8250213483269 394.65,326.5923355748879 398.1,323.31119964166373 401.55,319.997224997192 405.0,316.6666666666667 408.45,313.33610833614136 411.90000000000003,310.02213369166964 415.35,306.7409977584455 418.8,303.50831198500634 422.25,300.3387558397527 425.70000000000005,297.2458258365606 429.15000000000003,294.24163037757785 432.6,291.33673584965163 436.05,288.54006631666607 439.50000000000006,285.85885618266605 442.95000000000005,283.29865258731763 446.40000000000003,280.86336220013095 449.84999999999997,278.5553355943256 453.29999999999995,276.37548152552245 456.74999999999994,274.32340317418084 460.2,272.3975486488101 463.65,270.59536867780463 467.09999999999997,268.91347532006506 470.54999999999995,267.34779658173306 474.0,265.89372293628236 477.45,264.5462428260817 480.9,263.30006521595806 484.34999999999997,262.14972813531415 487.8,261.0896928658563 491.25,260.1144240028325 494.7,259.2184560457796 498.15000000000003,258.3964474742662 501.6,257.6432234531825 505.05,256.95380841045574 508.5,256.3234497570089 511.95000000000005,255.74763399214478 515.4000000000001,255.22209637290192 518.85,254.7428252363515 522.3,254.30606195979337 525.75,253.90829743351418 529.2,253.54626581024877 532.6500000000001,253.21693618902256 536.0999999999999,252.91750279148405 539.55,252.64537409787698 543.0,252.3981613282789 546.45,252.17366658285877 549.9,251.96987089243638 553.3499999999999,251.78492237702199 556.8,251.6171246645699 560.25,251.46492568407908 563.7,251.32690691558724 567.15,251.20177315371305 570.5999999999999,251.0883428204213 574.05,250.98553884590427 577.5,250.89238012323796 580.95,250.80797353221124 584.4,250.73150651992674 587.85,250.66224022000762 591.3000000000001,250.59950308812546 594.75,250.54268502878614 598.2,250.49123198659146 601.65,250.44464097432177 605.1,250.40245550996113 608.5500000000001,250.36426143506813 612.0,250.3296830875513 615.45,250.29837980283685 618.9000000000001,250.27004271854 622.3499999999999,250.24439185899905 625.8,250.22117347735661 629.25,250.2001576342316 632.6999999999999,250.1811359933905 636.15,250.1639198161703 639.6,250.14833813771472 643.05,250.13423610934476 646.5,250.12147349258674 649.95,250.10992329151975 653.4,250.0994705111782 656.85,250.09001103075104 660.3,250.0814505812579 663.75,250.0737038182565 667.2,250.06669348094394 670.65,250.06034962976543 674.1,250.05460895533147 677.55,250.0494141520835 681.0,250.04471335072884 684.45,250.04045960400384 687.9,250.0366104208135 691.35,250.03312734424526 694.8000000000001,250.02997556936447 698.25,250.02712359707402 701.7,250.02454292066176 705.1500000000001,250.02220774197028 708.5999999999999,250.02009471440795 712.05,250.01818271027727 715.5,250.01645261013152 718.9499999999999,250.01488711208395 722.4,250.01347055918768 725.85,250.01218878318028 729.3,250.0110289630469 732.75,250.00997949700138 736.2,250.00902988661596 739.65,250.0081706319489 743.1,250.00739313662973 746.55,250.00668962195783 750.0,250.00605304916033" fill="none" stroke="#e63946" stroke-width="4"  />
<line x1="80" y1="60" x2="110" y2="60" stroke="#e63946" stroke-width="4"  />
<text x="120" y="64" font-family="sans-serif" font-size="14" fill="#333">Sigmoid (L=1, k=1, x0=0)</text>
<polyline points="60.0,383.32122723501266 63.44999999999999,383.31995408941765 66.89999999999998,383.3185470600739 70.35000000000002,383.31699206943557 73.80000000000001,383.3152735601014 77.25,383.3133743393305 80.69999999999999,383.3112754072396 84.14999999999998,383.30895576697276 87.60000000000002,383.30639221495795 91.05000000000001,383.30355910916546 94.5,383.3004281130703 97.94999999999999,383.2969679127788 101.39999999999998,383.29314390451736 104.85000000000002,383.2889178493927 108.30000000000001,383.28424749200974 111.75,383.27908613918527 115.19999999999999,383.27338219460444 118.64999999999998,383.26707864484285 122.10000000000002,383.2601124917063 125.55000000000001,383.25241412532563 129.0,383.2439066318756 132.45,383.2345050291663 135.9,383.22411542267037 139.35000000000002,383.2126340738025 142.8,383.19994637144544 146.25,383.1859256968204 149.7,383.1704321708175 153.15,383.1533112718312 156.60000000000002,383.13439231097686 160.05,383.11348675029376 163.5,383.0903863481598 166.95,383.0648611146438 170.4,383.03665705790394 173.85000000000002,383.0054937009927 177.3,382.9710613465523 180.75,382.9330180648701 184.2,382.89098637862014 187.64999999999998,382.84454961533527 191.1,382.7932478962534 194.55,382.7365737276597 198.0,382.67396715823077 201.45,382.60481046319705 204.9,382.52842231341106 208.35,382.44405138468977 211.8,382.3508693601504 215.25,382.24796327576104 218.70000000000002,382.13432715708234 222.14999999999998,382.00885289331814 225.6,381.8703202934799 229.05,381.7173862689109 232.5,381.54857308685735 235.95000000000002,381.3622556415248 239.4,381.1566476924907 242.85000000000002,380.9297870259072 246.3,380.6795195021589 249.75000000000003,380.40348196517516 253.20000000000002,380.0990840041935 256.65,379.7634885792894 260.1,379.3935915484605 263.54999999999995,378.98600016761577 267.0,378.5370106767756 270.45,378.0425851375793 273.9,377.4983277503652 277.35,376.8994609552882 280.8,376.2408017128358 284.25,375.516738466305 287.70000000000005,374.7212094137465 291.15,373.84768286063036 294.6,372.8891405875295 298.04999999999995,371.83806534904375 301.5,370.68643381931554 304.95,369.42571651242196 308.4,368.04688642696834 311.85,366.54043838480095 315.29999999999995,364.8964212417742 318.75,363.1044853276684 322.2,361.1539476016207 325.65000000000003,359.033877062705 329.1,356.73320290141726 332.55,354.24084768116984 336.0,351.54588746076865 339.45000000000005,348.6377401698672 342.9,345.50638269320325 346.34999999999997,342.1425959777241 349.8,338.53823603571317 353.25,334.68652698497164 356.7,330.5823702822885 360.15,326.2226621446823 363.6,321.60660893307136 367.05,316.736028158698 370.5,311.6156209680013 373.95,306.2532007000011 377.40000000000003,300.65986163402994 380.85,294.85007257817756 384.29999999999995,288.8416816602122 387.75,282.6558216538279 391.2,276.31670936332057 394.65,269.8513378164424 398.1,263.2890659499941 401.55,256.66111666105064 405.0,250.0 408.45,243.3388833389494 411.90000000000003,236.71093405000593 415.35,230.14866218355758 418.8,223.68329063667943 422.25,217.34417834617213 425.70000000000005,211.15831833978777 429.15000000000003,205.1499274218223 432.6,199.34013836596995 436.05,193.74679929999894 439.50000000000006,188.38437903199872 442.95000000000005,183.2639718413019 446.40000000000003,178.39339106692853 449.84999999999997,173.77733785531774 453.29999999999995,169.41762971771152 456.74999999999994,165.31347301502836 460.2,161.46176396428677 463.65,157.85740402227594 467.09999999999997,154.4936173067968 470.54999999999995,151.3622598301328 474.0,148.4541125392314 477.45,145.7591523188301 480.9,143.26679709858274 484.34999999999997,140.96612293729493 487.8,138.8460523983793 491.25,136.89551467233161 494.7,135.10357875822586 498.15000000000003,133.45956161519905 501.6,131.95311357303166 505.05,130.5742834875781 508.5,129.31356618068446 511.95000000000005,128.1619346509563 515.4000000000001,127.11085941247052 518.85,126.15231713936964 522.3,125.27879058625342 525.75,124.48326153369499 529.2,123.75919828716417 532.6500000000001,123.10053904471181 536.0999999999999,122.5016722496348 539.55,121.95741486242065 543.0,121.4629893232244 546.45,121.01399983238423 549.9,120.6064084515395 553.3499999999999,120.23651142071066 556.8,119.90091599580649 560.25,119.59651803482478 563.7,119.32048049784112 567.15,119.07021297409278 570.5999999999999,118.84335230750929 574.05,118.63774435847517 577.5,118.4514269131426 580.95,118.28261373108916 584.4,118.12967970652011 587.85,117.99114710668186 591.3000000000001,117.8656728429176 594.75,117.7520367242389 598.2,117.6491306398496 601.65,117.55594861531023 605.1,117.47157768658894 608.5500000000001,117.39518953680295 612.0,117.32603284176923 615.45,117.26342627234038 618.9000000000001,117.20675210374662 622.3499999999999,117.15545038466479 625.8,117.10901362137986 629.25,117.06698193512983 632.6999999999999,117.02893865344771 636.15,116.99450629900724 639.6,116.96334294209606 643.05,116.93513888535614 646.5,116.90961365184017 649.95,116.88651324970618 653.4,116.86560768902308 656.85,116.84668872816871 660.3,116.82956782918251 663.75,116.81407430317967 667.2,116.80005362855456 670.65,116.78736592619748 674.1,116.77588457732958 677.55,116.76549497083369 681.0,116.75609336812437 684.45,116.74758587467431 687.9,116.73988750829369 691.35,116.73292135515715 694.8000000000001,116.72661780539556 698.25,116.72091386081468 701.7,116.7157525079902 705.1500000000001,116.71108215060724 708.5999999999999,116.70685609548258 712.05,116.70303208722123 715.5,116.69957188692968 718.9499999999999,116.69644089083454 722.4,116.69360778504205 725.85,116.69104423302718 729.3,116.68872459276042 732.75,116.68662566066945 736.2,116.68472643989855 739.65,116.68300793056443 743.1,116.68145293992609 746.55,116.68004591058235 750.0,116.67877276498734" fill="none" stroke="#1d3557" stroke-width="3" stroke-dasharray="5,5" />
<line x1="80" y1="85" x2="110" y2="85" stroke="#1d3557" stroke-width="3" stroke-dasharray="5,5" />
<text x="120" y="89" font-family="sans-serif" font-size="14" fill="#333">改变最大值 (L=2)</text>
<polyline points="60.0,383.33333333332087 63.44999999999999,383.3333333333165 66.89999999999998,383.33333333331063 70.35000000000002,383.3333333333027 73.80000000000001,383.33333333329193 77.25,383.33333333327744 80.69999999999999,383.3333333332579 84.14999999999998,383.33333333323145 87.60000000000002,383.3333333331958 91.05000000000001,383.33333333314766 94.5,383.33333333308275 97.94999999999999,383.33333333299504 101.39999999999998,383.3333333328767 104.85000000000002,383.33333333271696 108.30000000000001,383.3333333325013 111.75,383.3333333322102 115.19999999999999,383.33333333181724 118.64999999999998,383.3333333312869 122.10000000000002,383.3333333305709 125.55000000000001,383.33333332960444 129.0,383.33333332829983 132.45,383.33333332653876 135.9,383.3333333241617 139.35000000000002,383.3333333209529 142.8,383.33333331662146 146.25,383.3333333107747 149.7,383.33333330288235 153.15,383.3333332922288 156.60000000000002,383.33333327784806 160.05,383.333333258436 163.5,383.3333332322325 166.95,383.33333319686153 170.4,383.3333331491157 173.85000000000002,383.33333308466547 177.3,383.33333299766684 180.75,383.33333288023096 184.2,383.3333327217091 187.64999999999998,383.333332507727 191.1,383.3333322188813 194.55,383.3333318289805 198.0,383.3333313026694 201.45,383.3333305922238 204.9,383.33332963322243 208.35,383.3333283387061 211.8,383.3333265912919 215.25,383.33332423252943 218.70000000000002,383.3333210485334 222.14999999999998,383.33331675058844 225.6,383.33331094897005 229.05,383.33330311760517 232.5,383.33329254636976 235.95000000000002,383.33327827669723 239.4,383.33325901465884 242.85000000000002,383.3332330136356 246.3,383.3331979159414 249.75000000000003,383.3331505390391 253.20000000000002,383.33308658696365 256.65,383.3330002607886 260.1,383.3328837328182 263.54999999999995,383.33272643683404 267.0,383.332514110053 270.45,383.33222749995014 273.9,383.33184061873266 277.35,383.33131838727456 280.8,383.3306134550294 284.25,383.3296619078514 287.70000000000005,383.32837747505295 291.15,383.3266437113755 294.6,383.32430344671735 298.04999999999995,383.321144550153 301.5,383.31688072320185 304.95,383.311125591363 308.4,383.3033577639689 311.85,383.2928737293295 315.29999999999995,383.27872437800187 318.75,383.2596295150769 322.2,383.2338628221551 325.65000000000003,383.1990972239886 329.1,383.1521973399428 332.55,383.0889414743343 336.0,383.00365024578207 339.45000000000005,382.88869235901154 342.9,382.73383024520786 346.34999999999997,382.52535980112214 349.8,382.244990512912 353.25,381.8684076492542 356.7,381.3634624408969 360.15,380.68795923545633 363.6,379.78706752308454 367.05,378.5905080969818 370.5,377.00988357632446 373.95,374.93688585906716 377.40000000000003,372.243640467477 380.85,368.7870905072516 384.29999999999995,364.41985801326837 387.75,359.0099301591525 391.2,352.4699711332024 394.65,344.79326701666724 398.1,336.0875074967727 401.55,326.59233557488784 405.0,316.6666666666667 408.45,306.7409977584455 411.90000000000003,297.2458258365607 415.35,288.54006631666607 418.8,280.86336220013095 422.25,274.32340317418084 425.70000000000005,268.91347532006495 429.15000000000003,264.54624282608165 432.6,261.08969286585625 436.05,258.3964474742662 439.50000000000006,256.3234497570089 442.95000000000005,254.74282523635142 446.40000000000003,253.54626581024877 449.84999999999997,252.645374097877 453.29999999999995,251.96987089243638 456.74999999999994,251.46492568407908 460.2,251.0883428204213 463.65,250.80797353221124 467.09999999999997,250.59950308812546 470.54999999999995,250.44464097432177 474.0,250.3296830875513 477.45,250.24439185899905 480.9,250.1811359933905 484.34999999999997,250.13423610934476 487.8,250.0994705111782 491.25,250.0737038182565 494.7,250.05460895533147 498.15000000000003,250.04045960400384 501.6,250.02997556936447 505.05,250.02220774197028 508.5,250.01645261013152 511.95000000000005,250.01218878318028 515.4000000000001,250.00902988661596 518.85,250.00668962195783 522.3,250.00495585828037 525.75,250.00367142548197 529.2,250.002719878304 532.6500000000001,250.0020149460588 536.0999999999999,250.00149271460066 539.55,250.0011058333832 543.0,250.0008192232803 546.45,250.0006068964993 549.9,250.00044960051514 553.3499999999999,250.00033307254478 556.8,250.00024674636973 560.25,250.00018279429426 563.7,250.0001354173919 567.15,250.00010031969774 570.5999999999999,250.00007431867448 574.05,250.00005505663614 577.5,250.0000407869636 580.95,250.00003021572817 584.4,250.00002238436332 587.85,250.00001658274488 591.3000000000001,250.0000122848 594.75,250.00000910080388 598.2,250.00000674204148 601.65,250.00000499462723 605.1,250.0000037001109 608.5500000000001,250.0000027411096 612.0,250.00000203066392 615.45,250.00000150435284 618.9000000000001,250.000001114452 622.3499999999999,250.00000082560635 625.8,250.00000061162424 629.25,250.0000004531024 632.6999999999999,250.0000003356665 636.15,250.00000024866785 639.6,250.0000001842177 643.05,250.0000001364718 646.5,250.00000010110082 649.95,250.00000007489734 653.4,250.00000005548532 656.85,250.00000004110453 660.3,250.000000030451 663.75,250.00000002255865 667.2,250.00000001671185 670.65,250.00000001238044 674.1,250.00000000917166 677.55,250.00000000679455 681.0,250.0000000050335 684.45,250.00000000372893 687.9,250.00000000276245 691.35,250.00000000204648 694.8000000000001,250.00000000151604 698.25,250.0000000011231 701.7,250.00000000083205 705.1500000000001,250.0000000006164 708.5999999999999,250.00000000045662 712.05,250.00000000033828 715.5,250.00000000025062 718.9499999999999,250.00000000018565 722.4,250.0000000001375 725.85,250.00000000010186 729.3,250.0000000000755 732.75,250.00000000005593 736.2,250.0000000000414 739.65,250.0000000000307 743.1,250.00000000002274 746.55,250.00000000001685 750.0,250.00000000001245" fill="none" stroke="#457b9d" stroke-width="3"  />
<line x1="80" y1="110" x2="110" y2="110" stroke="#457b9d" stroke-width="3"  />
<text x="120" y="114" font-family="sans-serif" font-size="14" fill="#333">增加陡峭度 (k=3)</text>
<polyline points="60.0,382.44095321009536 63.44999999999999,382.39552171266735 66.89999999999998,382.34779448742904 70.35000000000002,382.29765732293134 73.80000000000001,382.244990512912 77.25,382.18966861150506 80.69999999999999,382.1315601796203 84.14999999999998,382.0705275224072 87.60000000000002,382.00642641774607 91.05000000000001,381.9391058357443 94.5,381.8684076492542 97.94999999999999,381.79416633547703 101.39999999999998,381.71620866876344 104.85000000000002,381.6343534047851 108.30000000000001,381.5484109563114 111.75,381.45818306090064 115.19999999999999,381.3634624408969 118.64999999999998,381.26403245621214 122.10000000000002,381.15966675047457 125.55000000000001,381.0501288912363 129.0,380.9351720050545 132.45,380.8145384083948 135.9,380.68795923545633 139.35000000000002,380.55515406417595 142.8,380.4158305418493 146.25,380.26968401199656 149.7,380.1163971443108 153.15,379.9556395697504 156.60000000000002,379.78706752308454 160.05,379.6103234954569 163.5,379.42503589981914 166.95,379.2308187523803 170.4,379.0272713735399 173.85000000000002,378.81397811210957 177.3,378.59050809698186 180.75,378.3564150207827 184.2,378.1112369604314 187.64999999999998,377.854496239938 191.1,377.5856993411885 194.55,377.304336868895 198.0,377.00988357632446 201.45,376.7017984588591 204.9,376.37952492287764 208.35,376.0424910378746 211.8,375.6901098801508 215.25,375.321779976799 218.70000000000002,374.93688585906716 222.14999999999998,374.5347987345042 225.6,374.1148772875538 229.05,373.6764686184643 232.5,373.2189093305009 235.95000000000002,372.74152677546954 239.4,372.243640467477 242.85000000000002,371.72456367463053 246.3,371.18360519801917 249.75000000000003,370.6200713467854 253.20000000000002,370.0332681173753 256.65,369.42250358413315 260.1,368.7870905072516 263.54999999999995,368.1263491626945 267.0,367.43961039705096 270.45,366.7262189083445 273.9,365.9855367516003 277.35,365.21694706545406 280.8,364.4198580132683 284.25,363.59370692910807 287.70000000000005,362.7379646555287 291.15,361.8521400564553 294.6,360.93578468452324 298.04999999999995,359.98849757812803 301.5,359.0099301591525 304.95,357.9997911979583 308.4,356.9578518078109 311.85,355.88395042654037 315.29999999999995,354.7779977390078 318.75,353.6399814899588 322.2,352.46997113320236 325.65000000000003,351.26812225988147 329.1,350.0346807460157 332.55,348.76998655762054 336.0,347.4744771506673 339.45000000000005,346.14869040304836 342.9,344.7932670166672 346.34999999999997,343.40895232986304 349.8,341.9965974836817 353.25,340.5571598900524 356.7,339.09170295575547 360.15,337.6013950231332 363.6,336.08750749677273 367.05,334.5514121347734 370.5,332.9945774935806 373.95,331.41856452656293 377.40000000000003,329.8250213483269 380.85,328.21567718897734 384.29999999999995,326.5923355748879 387.75,324.95686678477307 391.2,323.31119964166373 394.65,321.65731271249996 398.1,319.997224997192 401.55,318.3329861978947 405.0,316.6666666666667 408.45,315.00034713543863 411.90000000000003,313.33610833614136 415.35,311.67602062083336 418.8,310.02213369166964 422.25,308.37646654856024 425.70000000000005,306.7409977584455 429.15000000000003,305.11765614435603 432.6,303.50831198500634 436.05,301.9147688067704 439.50000000000006,300.3387558397527 442.95000000000005,298.78192119855987 446.40000000000003,297.2458258365606 449.84999999999997,295.7319383102002 453.29999999999995,294.24163037757785 456.74999999999994,292.7761734432809 460.2,291.33673584965163 463.65,289.9243810034703 467.09999999999997,288.5400663166662 470.54999999999995,287.18464293028495 474.0,285.85885618266605 477.45,284.56334677571283 480.9,283.2986525873177 484.34999999999997,282.06521107345185 487.8,280.86336220013095 491.25,279.69335184337456 494.7,278.5553355943255 498.15000000000003,277.44938290679295 501.6,276.37548152552245 505.05,275.33354213537507 508.5,274.32340317418084 511.95000000000005,273.3448357552053 515.4000000000001,272.3975486488101 518.85,271.48119327687806 522.3,270.59536867780463 525.75,269.73962640422525 529.2,268.913475320065 532.6500000000001,268.1163862678792 536.0999999999999,267.34779658173306 539.55,266.6071144249888 543.0,265.89372293628236 546.45,265.2069841706388 549.9,264.5462428260817 553.3499999999999,263.91082974920016 556.8,263.30006521595806 560.25,262.71326198654793 563.7,262.14972813531415 567.15,261.60876965870284 570.5999999999999,261.0896928658563 574.05,260.5918065578638 577.5,260.1144240028325 580.95,259.656864714869 584.4,259.2184560457796 587.85,258.7985345988292 591.3000000000001,258.3964474742662 594.75,258.01155335653436 598.2,257.6432234531825 601.65,257.2908422954588 605.1,256.95380841045574 608.5500000000001,256.6315348744742 612.0,256.3234497570089 615.45,256.02899646443836 618.9000000000001,255.74763399214478 622.3499999999999,255.47883709339533 625.8,255.22209637290192 629.25,254.9769183125506 632.6999999999999,254.7428252363515 636.15,254.51935522122372 639.6,254.30606195979337 643.05,254.10251458095308 646.5,253.90829743351418 649.95,253.7230098378764 653.4,253.5462658102488 656.85,253.37769376358287 660.3,253.21693618902256 663.75,253.06364932133675 667.2,252.91750279148405 670.65,252.77817926915736 674.1,252.64537409787698 677.55,252.51879492493856 681.0,252.3981613282789 684.45,252.28320444209703 687.9,252.17366658285877 691.35,252.06930087712118 694.8000000000001,251.96987089243638 698.25,251.87515027243273 701.7,251.78492237702199 705.1500000000001,251.69897992854823 708.5999999999999,251.6171246645699 712.05,251.5391669978563 715.5,251.46492568407908 718.9499999999999,251.3942274975891 722.4,251.32690691558724 725.85,251.26280581092615 729.3,251.20177315371305 732.75,251.14366472182826 736.2,251.0883428204213 739.65,251.03567601040203 743.1,250.98553884590427 746.55,250.93781162066603 750.0,250.89238012323796" fill="none" stroke="#2a9d8f" stroke-width="3"  />
<line x1="80" y1="135" x2="110" y2="135" stroke="#2a9d8f" stroke-width="3"  />
<text x="120" y="139" font-family="sans-serif" font-size="14" fill="#333">减小陡峭度 (k=0.5)</text>
<polyline points="60.0,383.33303195676024 63.44999999999999,383.3330002607886 66.89999999999998,383.33296523134 70.35000000000002,383.3329265178335 73.80000000000001,383.3328837328182 77.25,383.33283644809546 80.69999999999999,383.33278419043404 84.14999999999998,383.33272643683404 87.60000000000002,383.3326626092931 91.05000000000001,383.3325920690222 94.5,383.332514110053 97.94999999999999,383.3324279521736 101.39999999999998,383.3323327331204 104.85000000000002,383.33222749995014 108.30000000000001,383.332111199504 111.75,383.3319826678692 115.19999999999999,383.33184061873266 118.64999999999998,383.3316836305101 122.10000000000002,383.33151013212205 125.55000000000001,383.33131838727456 129.0,383.3311064770869 132.45,383.3308722808939 135.9,383.3306134550294 139.35000000000002,383.33032740937995 142.8,383.33001128147475 146.25,383.3296619078514 149.7,383.3292757924132 153.15,383.3288490714615 156.60000000000002,383.32837747505295 160.05,383.32785628429804 163.5,383.327280284173 166.95,383.3266437113755 170.4,383.32594019670364 173.85000000000002,383.32516270138444 177.3,383.32430344671735 180.75,383.32335383633193 184.2,383.3223043702864 187.64999999999998,383.321144550153 191.1,383.31986277414563 194.55,383.31844622124936 198.0,383.31688072320185 201.45,383.31515062305607 204.9,383.31323861892537 208.35,383.311125591363 211.8,383.30879041267156 215.25,383.3062097362593 218.70000000000002,383.3033577639689 222.14999999999998,383.3002059890881 225.6,383.29672291251984 229.05,383.2928737293295 232.5,383.2886199826045 235.95000000000002,383.2839191812498 239.4,383.27872437800187 242.85000000000002,383.27298370356795 246.3,383.2666398523894 249.75000000000003,383.2596295150769 253.20000000000002,383.2518827520754 256.65,383.24332230258227 260.1,383.2338628221551 263.54999999999995,383.22341004181357 267.0,383.21185984074657 270.45,383.1990972239886 273.9,383.1849951956186 277.35,383.169413517163 280.8,383.1521973399428 284.25,383.13317569910174 287.70000000000005,383.11215985597676 291.15,383.0889414743343 294.6,383.06329061479335 298.04999999999995,383.0349535304965 301.5,383.00365024578207 304.95,382.96907189826516 308.4,382.9308778233722 311.85,382.88869235901154 315.29999999999995,382.84210134674186 318.75,382.7906483045472 322.2,382.73383024520786 325.65000000000003,382.67109311332575 329.1,382.6018268134066 332.55,382.52535980112214 336.0,382.44095321009536 339.45000000000005,382.34779448742904 342.9,382.244990512912 346.34999999999997,382.1315601796203 349.8,382.00642641774607 353.25,381.8684076492542 356.7,381.71620866876344 360.15,381.5484109563114 363.6,381.3634624408969 367.05,381.15966675047457 370.5,380.9351720050545 373.95,380.68795923545633 377.40000000000003,380.4158305418493 380.85,380.1163971443108 384.29999999999995,379.78706752308454 387.75,379.42503589981914 391.2,379.02727137354 394.65,378.59050809698186 398.1,378.1112369604314 401.55,377.5856993411885 405.0,377.00988357632446 408.45,376.37952492287764 411.90000000000003,375.6901098801508 415.35,374.93688585906716 418.8,374.1148772875538 422.25,373.2189093305009 425.70000000000005,372.243640467477 429.15000000000003,371.18360519801917 432.6,370.0332681173753 436.05,368.7870905072516 439.50000000000006,367.43961039705096 442.95000000000005,365.98553675160025 446.40000000000003,364.41985801326825 449.84999999999997,362.73796465552874 453.29999999999995,360.9357846845233 456.74999999999994,359.0099301591525 460.2,356.9578518078109 463.65,354.77799773900784 467.09999999999997,352.4699711332024 470.54999999999995,350.03468074601574 474.0,347.4744771506673 477.45,344.7932670166672 480.9,341.9965974836817 484.34999999999997,339.09170295575547 487.8,336.08750749677273 491.25,332.9945774935806 494.7,329.8250213483269 498.15000000000003,326.5923355748879 501.6,323.31119964166373 505.05,319.997224997192 508.5,316.6666666666667 511.95000000000005,313.33610833614125 515.4000000000001,310.0221336916696 518.85,306.7409977584455 522.3,303.50831198500634 525.75,300.3387558397527 529.2,297.2458258365606 532.6500000000001,294.24163037757785 536.0999999999999,291.3367358496517 539.55,288.5400663166662 543.0,285.85885618266605 546.45,283.2986525873177 549.9,280.863362200131 553.3499999999999,278.5553355943256 556.8,276.37548152552245 560.25,274.32340317418084 563.7,272.3975486488101 567.15,270.59536867780463 570.5999999999999,268.913475320065 574.05,267.34779658173306 577.5,265.89372293628236 580.95,264.5462428260817 584.4,263.30006521595806 587.85,262.14972813531415 591.3000000000001,261.0896928658563 594.75,260.1144240028325 598.2,259.2184560457796 601.65,258.3964474742662 605.1,257.6432234531825 608.5500000000001,256.95380841045574 612.0,256.3234497570089 615.45,255.74763399214478 618.9000000000001,255.22209637290192 622.3499999999999,254.7428252363515 625.8,254.30606195979342 629.25,253.90829743351418 632.6999999999999,253.5462658102488 636.15,253.21693618902256 639.6,252.91750279148405 643.05,252.64537409787698 646.5,252.3981613282789 649.95,252.17366658285877 653.4,251.96987089243638 656.85,251.78492237702199 660.3,251.6171246645699 663.75,251.46492568407908 667.2,251.32690691558724 670.65,251.20177315371305 674.1,251.0883428204213 677.55,250.98553884590427 681.0,250.89238012323796 684.45,250.80797353221124 687.9,250.73150651992674 691.35,250.66224022000762 694.8000000000001,250.59950308812546 698.25,250.54268502878614 701.7,250.49123198659146 705.1500000000001,250.44464097432177 708.5999999999999,250.40245550996113 712.05,250.36426143506813 715.5,250.3296830875513 718.9499999999999,250.29837980283685 722.4,250.27004271854 725.85,250.24439185899905 729.3,250.22117347735661 732.75,250.2001576342316 736.2,250.1811359933905 739.65,250.1639198161703 743.1,250.14833813771472 746.55,250.13423610934476 750.0,250.12147349258674" fill="none" stroke="#f4a261" stroke-width="3" stroke-dasharray="10,5" />
<line x1="80" y1="160" x2="110" y2="160" stroke="#f4a261" stroke-width="3" stroke-dasharray="10,5" />
<text x="120" y="164" font-family="sans-serif" font-size="14" fill="#333">中心右移 (x0=3)</text>
</svg>