<svg width="800" height="500" viewBox="0 0 800 500" xmlns="http://www.w3.org/2000/svg">
<rect width="100%" height="100%" fill="#ffffff" />
<text x="400.0" y="30" font-family="sans-serif" font-size="20" text-anchor="middle" font-weight="bold">Sigmoid 与 Tanh 对比</text>
<line x1="60" y1="250.0" x2="750" y2="250.0" stroke="#333" stroke-width="2" />
<line x1="405.0" y1="50" x2="405.0" y2="450" stroke="#333" stroke-width="2" />
<line x1="60.0" y1="50" x2="60.0" y2="450" stroke="#ddd" stroke-width="1" />
<text x="60.0" y="470" font-family="sans-serif" font-size="12" text-anchor="middle" fill="#666">-6.0</text>
<line x1="129.0" y1="50" x2="129.0" y2="450" stroke="#ddd" stroke-width="1" />
<text x="129.0" y="470" font-family="sans-serif" font-size="12" text-anchor="middle" fill="#666">-4.8</text>
<line x1="198.00000000000003" y1="50" x2="198.00000000000003" y2="450" stroke="#ddd" stroke-width="1" />
<text x="198.00000000000003" y="470" font-family="sans-serif" font-size="12" text-anchor="middle" fill="#666">-3.6</text>
<line x1="267.0" y1="50" x2="267.0" y2="450" stroke="#ddd" stroke-width="1" />
<text x="267.0" y="470" font-family="sans-serif" font-size="12" text-anchor="middle" fill="#666">-2.4</text>
<line x1="336.00000000000006" y1="50" x2="336.00000000000006" y2="450" stroke="#ddd" stroke-width="1" />
<text x="336.00000000000006" y="470" font-family="sans-serif" font-size="12" text-anchor="middle" fill="#666">-1.2</text>
<line x1="405.0" y1="50" x2="405.0" y2="450" stroke="#ddd" stroke-width="1" />
<text x="405.0" y="470" font-family="sans-serif" font-size="12" text-anchor="middle" fill="#666">0.0</text>
<line x1="474.0" y1="50" x2="474.0" y2="450" stroke="#ddd" stroke-width="1" />
<text x="474.0" y="470" font-family="sans-serif" font-size="12" text-anchor="middle" fill="#666">1.2</text>
<line x1="542.9999999999999" y1="50" x2="542.9999999999999" y2="450" stroke="#ddd" stroke-width="1" />
<text x="542.9999999999999" y="470" font-family="sans-serif" font-size="12" text-anchor="middle" fill="#666">2.4</text>
<line x1="612.0000000000001" y1="50" x2="612.0000000000001" y2="450" stroke="#ddd" stroke-width="1" />
<text x="612.0000000000001" y="470" font-family="sans-serif" font-size="12" text-anchor="middle" fill="#666">3.6</text>
<line x1="681.0" y1="50" x2="681.0" y2="450" stroke="#ddd" stroke-width="1" />
<text x="681.0" y="470" font-family="sans-serif" font-size="12" text-anchor="middle" fill="#666">4.8</text>
<line x1="750.0" y1="50" x2="750.0" y2="450" stroke="#ddd" stroke-width="1" />
<text x="750.0" y="470" font-family="sans-serif" font-size="12" text-anchor="middle" fill="#666">6.0</text>
<line x1="60" y1="450.0" x2="750" y2="450.0" stroke="#ddd" stroke-width="1" />
<text x="50" y="454.0" font-family="sans-serif" font-size="12" text-anchor="end" fill="#666">-1.5</text>
<line x1="60" y1="370.0" x2="750" y2="370.0" stroke="#ddd" stroke-width="1" />
<text x="50" y="374.0" font-family="sans-serif" font-size="12" text-anchor="end" fill="#666">-0.9</text>
<line x1="60" y1="290.0" x2="750" y2="290.0" stroke="#ddd" stroke-width="1" />
<text x="50" y="294.0" font-family="sans-serif" font-size="12" text-anchor="end" fill="#666">-0.3</text>
<line x1="60" y1="210.0" x2="750" y2="210.0" stroke="#ddd" stroke-width="1" />
<text x="50" y="214.0" font-family="sans-serif" font-size="12" text-anchor="end" fill="#666">0.3</text>
<line x1="60" y1="129.99999999999994" x2="750" y2="129.99999999999994" stroke="#ddd" stroke-width="1" />
<text x="50" y="133.99999999999994" font-family="sans-serif" font-size="12" text-anchor="end" fill="#666">0.9</text>
<line x1="60" y1="50.0" x2="750" y2="50.0" stroke="#ddd" stroke-width="1" />
<text x="50" y="54.0" font-family="sans-serif" font-size="12" text-anchor="end" fill="#666">1.5</text>
<polyline points="60.0,249.6703169124487 63.449999999999974,249.64998396577863 66.9,249.62840050412768 70.34999999999998,249.60549006374572 73.80000000000001,249.58117156202272 77.24999999999999,249.55535902567823 80.70000000000002,249.5279613038738 84.15,249.49888176553324 87.60000000000002,249.4680179801341 91.05000000000001,249.43526138122087 94.49999999999997,249.4004969118745 97.95000000000002,249.3636026513649 101.39999999999998,249.32444942220448 104.85000000000001,249.28290037682018 108.3,249.23881056306354 111.75000000000001,249.1920264677888 115.2,249.1423855377442 118.64999999999998,249.08971567704828 122.10000000000001,249.0338347205558 125.55000000000003,248.97454988246554 129.0,248.9116571795787 132.45,248.8449408286916 135.90000000000003,248.7741726176949 139.35,248.69911125005984 142.79999999999995,248.6195016625211 146.25,248.53507431592092 149.70000000000002,248.44554445935557 153.15,248.35061136797836 156.6,248.24995755505296 160.05,248.14324795913328 163.5,248.0301291075636 166.94999999999996,247.9102282578602 170.4,247.78315251894912 173.85000000000002,247.64848795470365 177.3,247.50579867275272 180.74999999999997,247.35462590212302 184.20000000000002,247.19448706393757 187.64999999999998,247.02487484012906 191.10000000000002,246.8452562459385 194.54999999999998,246.65507171286936 198.00000000000003,246.4537341897512 201.45,246.24062827064765 204.9,246.01510935951518 208.35,245.77650288279247 211.8,245.52410356246898 215.25,245.2571747636485 218.70000000000002,244.97494793218587 222.14999999999998,244.6766221396248 225.6,244.3613637543955 229.04999999999998,244.02830626002844 232.5,243.67655024299108 235.95000000000002,243.3051635746311 239.4,242.9131818135915 242.85000000000002,242.499608856911 246.3,242.0634178697998 249.75000000000003,241.6035525257338 253.20000000000002,241.11892858998792 256.65,240.6084358809577 260.1,240.0709406445296 263.54999999999995,239.50528837726196 267.0,238.91030713414366 270.45,238.28481135609317 273.9,237.62760625104576 277.35,236.93749276032614 280.8,236.21327313890004 284.25,235.4537571739183 287.70000000000005,234.65776906059338 291.15,233.82415494776842 294.6,232.9517911574558 298.04999999999995,232.03959307306295 301.49999999999994,231.086524679935 304.95,230.09160872922087 308.40000000000003,229.05393748193964 311.85,227.97268397458473 315.29999999999995,226.84711373079932 318.75,225.67659682581916 322.20000000000005,224.46062019180434 325.65000000000003,223.19880003326276 329.09999999999997,221.89089420296705 332.55,220.53681437064162 336.00000000000006,219.136637799869 339.45000000000005,217.6906185338273 342.9,216.19919777835497 346.34999999999997,214.6630132622025 349.8,213.08290734991863 353.25,211.45993368333387 356.7,209.7953621336718 360.15,208.09068185843387 363.6,206.34760227570138 367.05,204.56805179351804 370.5,202.75417416343936 373.95,200.90832236481356 377.40000000000003,199.03304996923316 380.85,197.1310999819635 384.29999999999995,195.20539120782203 387.74999999999994,193.25900224155458 391.2,191.29515323562572 394.65000000000003,189.31718564981065 398.09999999999997,187.32854023527625 401.54999999999995,185.33273354925467 405.0,183.33333333333337 408.45,181.33393311741196 411.90000000000003,179.33812643139044 415.35,177.34948101685598 418.8,175.37151343104097 422.25,173.4076644251121 425.70000000000005,171.46127545884463 429.15000000000003,169.5355666847032 432.6,167.63361669743347 436.05,165.75834430185307 439.50000000000006,163.9124925032272 442.95000000000005,162.09861487314862 446.40000000000003,160.31906439096525 449.84999999999997,158.57598480823287 453.29999999999995,156.87130453299483 456.74999999999994,155.2067329833328 460.2,153.58375931674806 463.65,152.0036534044641 467.09999999999997,150.4674688883117 470.54999999999995,148.97604813283942 474.0,147.5300288667977 477.45,146.12985229602504 480.9,144.77577246369964 484.34999999999997,143.4678666334039 487.8,142.20604647486232 491.25,140.99006984084753 494.7,139.81955293586736 498.15000000000003,138.693982692082 501.6,137.61272918472702 505.05,136.57505793744582 508.5,135.5801419867317 511.95000000000005,134.62707359360377 515.4000000000001,133.71487550921086 518.85,132.84251171889827 522.3,132.00889760607328 525.7500000000001,131.2129094927484 529.2,130.4533935277666 532.6500000000001,129.72917390634052 536.0999999999999,129.03906041562095 539.55,128.38185531057348 542.9999999999999,127.75635953252299 546.45,127.1613782894047 549.9,126.59572602213706 553.3499999999999,126.05823078570893 556.8000000000001,125.5477380766788 560.25,125.0631141409329 563.7,124.60324879686692 567.15,124.16705780975565 570.5999999999999,123.75348485307518 574.05,123.3615030920356 577.5,122.99011642367554 580.95,122.63836040663824 584.4000000000001,122.30530291227115 587.85,121.99004452704185 591.3000000000001,121.69171873448079 594.75,121.40949190301814 598.1999999999999,121.14256310419768 601.65,120.89016378387413 605.1,120.65155730715145 608.5500000000001,120.42603839601901 612.0000000000001,120.21293247691546 615.45,120.01159495379727 618.9000000000001,119.82141042072817 622.3499999999999,119.64179182653766 625.8,119.47217960272911 629.2499999999999,119.31204076454367 632.6999999999999,119.16086799391394 636.15,119.018178711963 639.6,118.88351414771756 643.0500000000001,118.7564384088065 646.5,118.63653755910309 649.9499999999999,118.52341870753344 653.4,118.41670911161373 656.8499999999999,118.31605529868835 660.3,118.22112220731105 663.75,118.13159235074573 667.2,118.04716500414554 670.6500000000001,117.96755541660684 674.1,117.89249404897168 677.5500000000001,117.82172583797512 681.0,117.75500948708799 684.4499999999999,117.69211678420112 687.9,117.63283194611085 691.35,117.57695098961847 694.8000000000001,117.5242811289225 698.2500000000001,117.47464019887792 701.7,117.42785610360312 705.1500000000001,117.3837662898465 708.5999999999999,117.34221724446223 712.05,117.30306401530174 715.4999999999999,117.26616975479214 718.9499999999999,117.23140528544582 722.4,117.19864868653252 725.85,117.16778490113342 729.3000000000001,117.13870536279285 732.75,117.11130764098846 736.1999999999999,117.08549510464388 739.65,117.06117660292097 743.0999999999999,117.03826616253895 746.55,117.01668270088805 750.0,116.99634975421793" fill="none" stroke="#e63946" stroke-width="4"  />
<line x1="80" y1="60" x2="110" y2="60" stroke="#e63946" stroke-width="4"  />
<text x="120" y="64" font-family="sans-serif" font-size="14" fill="#333">Sigmoid: (0, 1)</text>
<polyline points="60.0,383.33169488677277 63.449999999999974,383.3314859914419 66.9,383.33125046300665 70.34999999999998,383.3309849059364 73.80000000000001,383.3306854918102 77.24999999999999,383.33034790413194 80.70000000000002,383.3299672761128 84.15,383.3295381205228 87.60000000000002,383.32905425060295 91.05000000000001,383.3285086908978 94.49999999999997,383.3278935767254 97.95000000000002,383.32720004083603 101.39999999999998,383.3264180856312 104.85000000000001,383.3255364390999 108.3,383.3245423924039 111.75000000000001,383.3234216167726 115.2,383.32215795707657 118.64999999999998,383.3207331991123 122.10000000000001,383.3191268072539 125.55000000000003,383.31731562870436 129.0,383.3152735601014 132.45,383.31297117169356 135.90000000000003,383.31037528369933 139.35,383.3074484887788 142.79999999999995,383.3041486137812 146.25,383.3004281130703 149.70000000000002,383.29623338475824 153.15,383.2915040000888 156.6,383.28617183498665 160.05,383.2801600914104 163.5,383.27338219460444 166.94999999999996,383.26574055060894 170.4,383.25712514644215 173.85000000000002,383.2474119731917 177.3,383.2364612498085 180.74999999999997,383.22411542267037 184.20000000000002,383.2101969129269 187.64999999999998,383.1945055802371 191.10000000000002,383.17681586771175 194.54999999999998,383.1568735886515 198.00000000000003,383.13439231097686 201.45,383.10904929005096 204.9,383.080480894839 208.35,383.04827746601546 211.8,383.01197753765894 215.25,382.9710613465523 218.70000000000002,382.92494354479913 222.14999999999998,382.8729650224701 225.6,382.81438373731055 229.04999999999998,382.748364438211 232.5,382.67396715823077 235.95000000000002,382.59013434158874 239.4,382.4956764573788 242.85000000000002,382.38925594108093 246.3,382.2693692936016 249.75000000000003,382.13432715708234 253.20000000000002,381.98223217774233 256.65,381.81095445946045 260.1,381.6181044088217 263.54999999999995,381.4010027744449 267.0,381.1566476924907 270.45,380.88167856872315 273.9,380.57233665837555 277.35,380.2244222520445 280.8,379.8332484434393 284.25,379.3935915484605 287.70000000000005,378.89963837123156 291.15,378.34493067883875 294.6,377.72230746120846 298.04999999999995,377.02384582521034 301.49999999999994,376.2408017128358 304.95,375.3635520523637 308.40000000000003,374.38154045827133 311.85,373.28322919770505 315.29999999999995,372.05606084212434 318.75,370.68643381931554 322.20000000000005,369.1596969605163 325.65000000000003,367.4601690729329 329.09999999999997,365.57119051330915 332.55,363.4752146223925 336.00000000000006,361.1539476016207 339.45000000000005,358.5885458354248 342.9,355.75987961113344 346.34999999999997,352.6488714545201 349.8,349.2369156482449 353.25,345.50638269320325 356.7,341.4412082972126 360.15,337.027560794932 363.6,332.254573716942 367.05,327.11512173926747 370.5,321.60660893307136 373.95,315.7317288900432 377.40000000000003,309.49914803317057 380.85,302.924057600677 384.29999999999995,296.0285378847361 387.74999999999994,288.8416816602122 391.2,281.39943327179975 394.65000000000003,273.74411574897726 398.09999999999997,265.9236398045848 401.54999999999995,257.9904138038859 405.0,250.0 408.45,242.00958619611416 411.90000000000003,234.0763601954152 415.35,226.25588425102268 418.8,218.60056672820022 422.25,211.15831833978777 425.70000000000005,203.97146211526382 429.15000000000003,197.075942399323 432.6,190.50085196682932 436.05,184.2682711099567 439.50000000000006,178.39339106692853 442.95000000000005,172.8848782607326 446.40000000000003,167.74542628305795 449.84999999999997,162.9724392050681 453.29999999999995,158.5587917027874 456.74999999999994,154.49361730679675 460.2,150.76308435175514 463.65,147.35112854547998 467.09999999999997,144.24012038886656 470.54999999999995,141.41145416457516 474.0,138.8460523983793 477.45,136.52478537760754 480.9,134.42880948669085 484.34999999999997,132.53983092706704 487.8,130.84030303948367 491.25,129.31356618068446 494.7,127.94393915787566 498.15000000000003,126.71677080229495 501.6,125.61845954172867 505.05,124.63644794763638 508.5,123.75919828716417 511.95000000000005,122.97615417478966 515.4000000000001,122.27769253879154 518.85,121.65506932116125 522.3,121.10036162876844 525.7500000000001,120.6064084515395 529.2,120.16675155656071 532.6500000000001,119.77557774795548 536.0999999999999,119.42766334162445 539.55,119.11832143127685 542.9999999999999,118.84335230750929 546.45,118.59899722555502 549.9,118.38189559117836 553.3499999999999,118.18904554053955 556.8000000000001,118.01776782225767 560.25,117.86567284291766 563.7,117.73063070639841 567.15,117.61074405891907 570.5999999999999,117.5043235426212 574.05,117.40986565841126 577.5,117.32603284176923 580.95,117.25163556178899 584.4000000000001,117.1856162626895 587.85,117.12703497752989 591.3000000000001,117.07505645520087 594.75,117.02893865344771 598.1999999999999,116.98802246234106 601.65,116.95172253398454 605.1,116.91951910516104 608.5500000000001,116.89095070994904 612.0000000000001,116.86560768902308 615.45,116.84312641134852 618.9000000000001,116.82318413228819 622.3499999999999,116.80549441976297 625.8,116.7898030870731 629.2499999999999,116.77588457732958 632.6999999999999,116.76353875019151 636.15,116.75258802680838 639.6,116.7428748535578 643.0500000000001,116.734259449391 646.5,116.7266178053955 649.9499999999999,116.71983990858962 653.4,116.71382816501335 656.8499999999999,116.70849599991118 660.3,116.70376661524176 663.75,116.69957188692968 667.2,116.6958513862188 670.6500000000001,116.69255151122121 674.1,116.68962471630073 677.5500000000001,116.68702882830644 681.0,116.68472643989867 684.4499999999999,116.68268437129564 687.9,116.6808731927461 691.35,116.67926680088772 694.8000000000001,116.67784204292337 698.2500000000001,116.67657838322742 701.7,116.67545760759612 705.1500000000001,116.67446356090011 708.5999999999999,116.67358191436887 712.05,116.67279995916397 715.4999999999999,116.67210642327461 718.9499999999999,116.67149130910218 722.4,116.67094574939705 725.85,116.67046187947727 729.3000000000001,116.67003272388718 732.75,116.66965209586806 736.1999999999999,116.66931450818987 739.65,116.66901509406358 743.0999999999999,116.66874953699335 746.55,116.66851400855813 750.0,116.66830511322723" fill="none" stroke="#1d3557" stroke-width="3" stroke-dasharray="5,5" />
<line x1="80" y1="85" x2="110" y2="85" stroke="#1d3557" stroke-width="3" stroke-dasharray="5,5" />
<text x="120" y="89" font-family="sans-serif" font-size="14" fill="#333">Tanh: (-1, 1), 零中心</text>
</svg>