<svg xmlns="http://www.w3.org/2000/svg" viewBox="0 0 800 560" width="100%" height="auto">
<rect width="800" height="560" rx="16" fill="#FAFAFB" stroke="#E5E7EB" stroke-width="2"/>
  <text x="400.0" y="35" font-family="system-ui, -apple-system, sans-serif" font-size="18" font-weight="bold" fill="#1F2937" text-anchor="middle">Sigmoid 函数及其导数曲线图</text>
  <rect x="130" y="60" width="18" height="4" rx="2" fill="#4F46E5" />
  <text x="156" y="65" font-family="system-ui, -apple-system, sans-serif" font-size="12" font-weight="600" fill="#374151">Sigmoid 激活函数: f(x) = 1 / (1 + e⁻ˣ)</text>
  <line x1="470" y1="62" x2="488" y2="62" stroke="#F59E0B" stroke-width="2.5" stroke-dasharray="3,2" stroke-linecap="round" />
  <text x="496" y="66" font-family="system-ui, -apple-system, sans-serif" font-size="12" font-weight="600" fill="#374151">Sigmoid 导数: f'(x) = f(x)(1 - f(x))</text>
  <line x1="80" y1="452.50" x2="720" y2="452.50" stroke="#D1D5DB" stroke-width="1.5"  />
  <text x="70" y="456.50" font-family="system-ui, -apple-system, sans-serif" font-size="12" fill="#4B5563" text-anchor="end">0.0</text>
  <line x1="80" y1="371.25" x2="720" y2="371.25" stroke="#E5E7EB" stroke-width="1" stroke-dasharray="4,4" />
  <text x="70" y="375.25" font-family="system-ui, -apple-system, sans-serif" font-size="12" fill="#4B5563" text-anchor="end">0.25</text>
  <line x1="80" y1="290.00" x2="720" y2="290.00" stroke="#D1D5DB" stroke-width="1.5" stroke-dasharray="4,4" />
  <text x="70" y="294.00" font-family="system-ui, -apple-system, sans-serif" font-size="12" fill="#4B5563" text-anchor="end">0.5</text>
  <line x1="80" y1="208.75" x2="720" y2="208.75" stroke="#E5E7EB" stroke-width="1" stroke-dasharray="4,4" />
  <text x="70" y="212.75" font-family="system-ui, -apple-system, sans-serif" font-size="12" fill="#4B5563" text-anchor="end">0.75</text>
  <line x1="80" y1="127.50" x2="720" y2="127.50" stroke="#D1D5DB" stroke-width="1.5"  />
  <text x="70" y="131.50" font-family="system-ui, -apple-system, sans-serif" font-size="12" fill="#4B5563" text-anchor="end">1.0</text>
  <line x1="80.00" y1="95" x2="80.00" y2="485" stroke="#E5E7EB" stroke-width="1" stroke-dasharray="4,4" />
  <text x="80.00" y="505" font-family="system-ui, -apple-system, sans-serif" font-size="12" fill="#4B5563" text-anchor="middle">-10</text>
  <line x1="144.00" y1="95" x2="144.00" y2="485" stroke="#E5E7EB" stroke-width="1" stroke-dasharray="4,4" />
  <text x="144.00" y="505" font-family="system-ui, -apple-system, sans-serif" font-size="12" fill="#4B5563" text-anchor="middle">-8</text>
  <line x1="208.00" y1="95" x2="208.00" y2="485" stroke="#E5E7EB" stroke-width="1" stroke-dasharray="4,4" />
  <text x="208.00" y="505" font-family="system-ui, -apple-system, sans-serif" font-size="12" fill="#4B5563" text-anchor="middle">-6</text>
  <line x1="272.00" y1="95" x2="272.00" y2="485" stroke="#E5E7EB" stroke-width="1" stroke-dasharray="4,4" />
  <text x="272.00" y="505" font-family="system-ui, -apple-system, sans-serif" font-size="12" fill="#4B5563" text-anchor="middle">-4</text>
  <line x1="336.00" y1="95" x2="336.00" y2="485" stroke="#E5E7EB" stroke-width="1" stroke-dasharray="4,4" />
  <text x="336.00" y="505" font-family="system-ui, -apple-system, sans-serif" font-size="12" fill="#4B5563" text-anchor="middle">-2</text>
  <line x1="400.00" y1="95" x2="400.00" y2="485" stroke="#D1D5DB" stroke-width="1.5"  />
  <text x="400.00" y="505" font-family="system-ui, -apple-system, sans-serif" font-size="12" fill="#4B5563" text-anchor="middle">0</text>
  <line x1="464.00" y1="95" x2="464.00" y2="485" stroke="#E5E7EB" stroke-width="1" stroke-dasharray="4,4" />
  <text x="464.00" y="505" font-family="system-ui, -apple-system, sans-serif" font-size="12" fill="#4B5563" text-anchor="middle">2</text>
  <line x1="528.00" y1="95" x2="528.00" y2="485" stroke="#E5E7EB" stroke-width="1" stroke-dasharray="4,4" />
  <text x="528.00" y="505" font-family="system-ui, -apple-system, sans-serif" font-size="12" fill="#4B5563" text-anchor="middle">4</text>
  <line x1="592.00" y1="95" x2="592.00" y2="485" stroke="#E5E7EB" stroke-width="1" stroke-dasharray="4,4" />
  <text x="592.00" y="505" font-family="system-ui, -apple-system, sans-serif" font-size="12" fill="#4B5563" text-anchor="middle">6</text>
  <line x1="656.00" y1="95" x2="656.00" y2="485" stroke="#E5E7EB" stroke-width="1" stroke-dasharray="4,4" />
  <text x="656.00" y="505" font-family="system-ui, -apple-system, sans-serif" font-size="12" fill="#4B5563" text-anchor="middle">8</text>
  <line x1="720.00" y1="95" x2="720.00" y2="485" stroke="#E5E7EB" stroke-width="1" stroke-dasharray="4,4" />
  <text x="720.00" y="505" font-family="system-ui, -apple-system, sans-serif" font-size="12" fill="#4B5563" text-anchor="middle">10</text>
  <text x="730" y="131.50" font-family="system-ui, -apple-system, sans-serif" font-size="11" font-style="italic" fill="#9CA3AF" text-anchor="start">y = 1 渐近线</text>
  <text x="730" y="456.50" font-family="system-ui, -apple-system, sans-serif" font-size="11" font-style="italic" fill="#9CA3AF" text-anchor="start">y = 0 渐近线</text>
  <path d="M 80.00,452.49 L 81.60,452.48 L 83.20,452.48 L 84.80,452.48 L 86.40,452.48 L 88.00,452.48 L 89.60,452.48 L 91.20,452.48 L 92.80,452.48 L 94.40,452.48 L 96.00,452.48 L 97.60,452.47 L 99.20,452.47 L 100.80,452.47 L 102.40,452.47 L 104.00,452.47 L 105.60,452.47 L 107.20,452.47 L 108.80,452.46 L 110.40,452.46 L 112.00,452.46 L 113.60,452.46 L 115.20,452.46 L 116.80,452.45 L 118.40,452.45 L 120.00,452.45 L 121.60,452.45 L 123.20,452.44 L 124.80,452.44 L 126.40,452.44 L 128.00,452.43 L 129.60,452.43 L 131.20,452.43 L 132.80,452.42 L 134.40,452.42 L 136.00,452.42 L 137.60,452.41 L 139.20,452.41 L 140.80,452.40 L 142.40,452.40 L 144.00,452.39 L 145.60,452.39 L 147.20,452.38 L 148.80,452.37 L 150.40,452.37 L 152.00,452.36 L 153.60,452.35 L 155.20,452.35 L 156.80,452.34 L 158.40,452.33 L 160.00,452.32 L 161.60,452.31 L 163.20,452.30 L 164.80,452.29 L 166.40,452.28 L 168.00,452.27 L 169.60,452.26 L 171.20,452.25 L 172.80,452.23 L 174.40,452.22 L 176.00,452.20 L 177.60,452.19 L 179.20,452.17 L 180.80,452.16 L 182.40,452.14 L 184.00,452.12 L 185.60,452.10 L 187.20,452.08 L 188.80,452.06 L 190.40,452.04 L 192.00,452.01 L 193.60,451.99 L 195.20,451.96 L 196.80,451.93 L 198.40,451.90 L 200.00,451.87 L 201.60,451.84 L 203.20,451.81 L 204.80,451.77 L 206.40,451.74 L 208.00,451.70 L 209.60,451.66 L 211.20,451.61 L 212.80,451.57 L 214.40,451.52 L 216.00,451.47 L 217.60,451.42 L 219.20,451.36 L 220.80,451.30 L 222.40,451.24 L 224.00,451.18 L 225.60,451.11 L 227.20,451.04 L 228.80,450.96 L 230.40,450.89 L 232.00,450.80 L 233.60,450.72 L 235.20,450.63 L 236.80,450.53 L 238.40,450.43 L 240.00,450.32 L 241.60,450.21 L 243.20,450.10 L 244.80,449.98 L 246.40,449.85 L 248.00,449.71 L 249.60,449.57 L 251.20,449.42 L 252.80,449.27 L 254.40,449.10 L 256.00,448.93 L 257.60,448.75 L 259.20,448.56 L 260.80,448.36 L 262.40,448.15 L 264.00,447.93 L 265.60,447.70 L 267.20,447.46 L 268.80,447.20 L 270.40,446.93 L 272.00,446.65 L 273.60,446.36 L 275.20,446.05 L 276.80,445.73 L 278.40,445.39 L 280.00,445.03 L 281.60,444.66 L 283.20,444.27 L 284.80,443.86 L 286.40,443.43 L 288.00,442.97 L 289.60,442.50 L 291.20,442.00 L 292.80,441.48 L 294.40,440.94 L 296.00,440.37 L 297.60,439.77 L 299.20,439.15 L 300.80,438.49 L 302.40,437.80 L 304.00,437.09 L 305.60,436.34 L 307.20,435.55 L 308.80,434.73 L 310.40,433.87 L 312.00,432.97 L 313.60,432.03 L 315.20,431.05 L 316.80,430.03 L 318.40,428.96 L 320.00,427.85 L 321.60,426.68 L 323.20,425.47 L 324.80,424.20 L 326.40,422.89 L 328.00,421.51 L 329.60,420.08 L 331.20,418.59 L 332.80,417.04 L 334.40,415.43 L 336.00,413.76 L 337.60,412.02 L 339.20,410.21 L 340.80,408.34 L 342.40,406.40 L 344.00,404.38 L 345.60,402.30 L 347.20,400.14 L 348.80,397.91 L 350.40,395.60 L 352.00,393.21 L 353.60,390.75 L 355.20,388.21 L 356.80,385.59 L 358.40,382.90 L 360.00,380.12 L 361.60,377.27 L 363.20,374.34 L 364.80,371.33 L 366.40,368.25 L 368.00,365.09 L 369.60,361.86 L 371.20,358.56 L 372.80,355.18 L 374.40,351.74 L 376.00,348.23 L 377.60,344.66 L 379.20,341.03 L 380.80,337.34 L 382.40,333.59 L 384.00,329.80 L 385.60,325.96 L 387.20,322.07 L 388.80,318.15 L 390.40,314.19 L 392.00,310.21 L 393.60,306.20 L 395.20,302.16 L 396.80,298.12 L 398.40,294.06 L 400.00,290.00 L 401.60,285.94 L 403.20,281.88 L 404.80,277.84 L 406.40,273.80 L 408.00,269.79 L 409.60,265.81 L 411.20,261.85 L 412.80,257.93 L 414.40,254.04 L 416.00,250.20 L 417.60,246.41 L 419.20,242.66 L 420.80,238.97 L 422.40,235.34 L 424.00,231.77 L 425.60,228.26 L 427.20,224.82 L 428.80,221.44 L 430.40,218.14 L 432.00,214.91 L 433.60,211.75 L 435.20,208.67 L 436.80,205.66 L 438.40,202.73 L 440.00,199.88 L 441.60,197.10 L 443.20,194.41 L 444.80,191.79 L 446.40,189.25 L 448.00,186.79 L 449.60,184.40 L 451.20,182.09 L 452.80,179.86 L 454.40,177.70 L 456.00,175.62 L 457.60,173.60 L 459.20,171.66 L 460.80,169.79 L 462.40,167.98 L 464.00,166.24 L 465.60,164.57 L 467.20,162.96 L 468.80,161.41 L 470.40,159.92 L 472.00,158.49 L 473.60,157.11 L 475.20,155.80 L 476.80,154.53 L 478.40,153.32 L 480.00,152.15 L 481.60,151.04 L 483.20,149.97 L 484.80,148.95 L 486.40,147.97 L 488.00,147.03 L 489.60,146.13 L 491.20,145.27 L 492.80,144.45 L 494.40,143.66 L 496.00,142.91 L 497.60,142.20 L 499.20,141.51 L 500.80,140.85 L 502.40,140.23 L 504.00,139.63 L 505.60,139.06 L 507.20,138.52 L 508.80,138.00 L 510.40,137.50 L 512.00,137.03 L 513.60,136.57 L 515.20,136.14 L 516.80,135.73 L 518.40,135.34 L 520.00,134.97 L 521.60,134.61 L 523.20,134.27 L 524.80,133.95 L 526.40,133.64 L 528.00,133.35 L 529.60,133.07 L 531.20,132.80 L 532.80,132.54 L 534.40,132.30 L 536.00,132.07 L 537.60,131.85 L 539.20,131.64 L 540.80,131.44 L 542.40,131.25 L 544.00,131.07 L 545.60,130.90 L 547.20,130.73 L 548.80,130.58 L 550.40,130.43 L 552.00,130.29 L 553.60,130.15 L 555.20,130.02 L 556.80,129.90 L 558.40,129.79 L 560.00,129.68 L 561.60,129.57 L 563.20,129.47 L 564.80,129.37 L 566.40,129.28 L 568.00,129.20 L 569.60,129.11 L 571.20,129.04 L 572.80,128.96 L 574.40,128.89 L 576.00,128.82 L 577.60,128.76 L 579.20,128.70 L 580.80,128.64 L 582.40,128.58 L 584.00,128.53 L 585.60,128.48 L 587.20,128.43 L 588.80,128.39 L 590.40,128.34 L 592.00,128.30 L 593.60,128.26 L 595.20,128.23 L 596.80,128.19 L 598.40,128.16 L 600.00,128.13 L 601.60,128.10 L 603.20,128.07 L 604.80,128.04 L 606.40,128.01 L 608.00,127.99 L 609.60,127.96 L 611.20,127.94 L 612.80,127.92 L 614.40,127.90 L 616.00,127.88 L 617.60,127.86 L 619.20,127.84 L 620.80,127.83 L 622.40,127.81 L 624.00,127.80 L 625.60,127.78 L 627.20,127.77 L 628.80,127.75 L 630.40,127.74 L 632.00,127.73 L 633.60,127.72 L 635.20,127.71 L 636.80,127.70 L 638.40,127.69 L 640.00,127.68 L 641.60,127.67 L 643.20,127.66 L 644.80,127.65 L 646.40,127.65 L 648.00,127.64 L 649.60,127.63 L 651.20,127.63 L 652.80,127.62 L 654.40,127.61 L 656.00,127.61 L 657.60,127.60 L 659.20,127.60 L 660.80,127.59 L 662.40,127.59 L 664.00,127.58 L 665.60,127.58 L 667.20,127.58 L 668.80,127.57 L 670.40,127.57 L 672.00,127.57 L 673.60,127.56 L 675.20,127.56 L 676.80,127.56 L 678.40,127.55 L 680.00,127.55 L 681.60,127.55 L 683.20,127.55 L 684.80,127.54 L 686.40,127.54 L 688.00,127.54 L 689.60,127.54 L 691.20,127.54 L 692.80,127.53 L 694.40,127.53 L 696.00,127.53 L 697.60,127.53 L 699.20,127.53 L 700.80,127.53 L 702.40,127.53 L 704.00,127.52 L 705.60,127.52 L 707.20,127.52 L 708.80,127.52 L 710.40,127.52 L 712.00,127.52 L 713.60,127.52 L 715.20,127.52 L 716.80,127.52 L 718.40,127.52 L 720.00,127.51" fill="none" stroke="#4F46E5" stroke-width="3" stroke-linecap="round" />
  <path d="M 80.00,452.49 L 81.60,452.48 L 83.20,452.48 L 84.80,452.48 L 86.40,452.48 L 88.00,452.48 L 89.60,452.48 L 91.20,452.48 L 92.80,452.48 L 94.40,452.48 L 96.00,452.48 L 97.60,452.47 L 99.20,452.47 L 100.80,452.47 L 102.40,452.47 L 104.00,452.47 L 105.60,452.47 L 107.20,452.47 L 108.80,452.46 L 110.40,452.46 L 112.00,452.46 L 113.60,452.46 L 115.20,452.46 L 116.80,452.45 L 118.40,452.45 L 120.00,452.45 L 121.60,452.45 L 123.20,452.44 L 124.80,452.44 L 126.40,452.44 L 128.00,452.43 L 129.60,452.43 L 131.20,452.43 L 132.80,452.42 L 134.40,452.42 L 136.00,452.42 L 137.60,452.41 L 139.20,452.41 L 140.80,452.40 L 142.40,452.40 L 144.00,452.39 L 145.60,452.39 L 147.20,452.38 L 148.80,452.37 L 150.40,452.37 L 152.00,452.36 L 153.60,452.35 L 155.20,452.35 L 156.80,452.34 L 158.40,452.33 L 160.00,452.32 L 161.60,452.31 L 163.20,452.30 L 164.80,452.29 L 166.40,452.28 L 168.00,452.27 L 169.60,452.26 L 171.20,452.25 L 172.80,452.23 L 174.40,452.22 L 176.00,452.20 L 177.60,452.19 L 179.20,452.17 L 180.80,452.16 L 182.40,452.14 L 184.00,452.12 L 185.60,452.10 L 187.20,452.08 L 188.80,452.06 L 190.40,452.04 L 192.00,452.01 L 193.60,451.99 L 195.20,451.96 L 196.80,451.93 L 198.40,451.91 L 200.00,451.88 L 201.60,451.84 L 203.20,451.81 L 204.80,451.77 L 206.40,451.74 L 208.00,451.70 L 209.60,451.66 L 211.20,451.61 L 212.80,451.57 L 214.40,451.52 L 216.00,451.47 L 217.60,451.42 L 219.20,451.36 L 220.80,451.31 L 222.40,451.25 L 224.00,451.18 L 225.60,451.12 L 227.20,451.05 L 228.80,450.97 L 230.40,450.89 L 232.00,450.81 L 233.60,450.73 L 235.20,450.64 L 236.80,450.54 L 238.40,450.44 L 240.00,450.34 L 241.60,450.23 L 243.20,450.12 L 244.80,450.00 L 246.40,449.87 L 248.00,449.74 L 249.60,449.60 L 251.20,449.45 L 252.80,449.30 L 254.40,449.14 L 256.00,448.97 L 257.60,448.79 L 259.20,448.61 L 260.80,448.41 L 262.40,448.21 L 264.00,447.99 L 265.60,447.77 L 267.20,447.53 L 268.80,447.29 L 270.40,447.03 L 272.00,446.76 L 273.60,446.48 L 275.20,446.18 L 276.80,445.87 L 278.40,445.54 L 280.00,445.20 L 281.60,444.85 L 283.20,444.48 L 284.80,444.09 L 286.40,443.68 L 288.00,443.25 L 289.60,442.81 L 291.20,442.34 L 292.80,441.86 L 294.40,441.35 L 296.00,440.82 L 297.60,440.27 L 299.20,439.69 L 300.80,439.09 L 302.40,438.47 L 304.00,437.82 L 305.60,437.14 L 307.20,436.43 L 308.80,435.70 L 310.40,434.94 L 312.00,434.15 L 313.60,433.32 L 315.20,432.47 L 316.80,431.58 L 318.40,430.67 L 320.00,429.72 L 321.60,428.73 L 323.20,427.72 L 324.80,426.67 L 326.40,425.58 L 328.00,424.47 L 329.60,423.31 L 331.20,422.13 L 332.80,420.91 L 334.40,419.66 L 336.00,418.38 L 337.60,417.06 L 339.20,415.72 L 340.80,414.34 L 342.40,412.94 L 344.00,411.51 L 345.60,410.05 L 347.20,408.58 L 348.80,407.08 L 350.40,405.56 L 352.00,404.03 L 353.60,402.48 L 355.20,400.93 L 356.80,399.37 L 358.40,397.80 L 360.00,396.24 L 361.60,394.68 L 363.20,393.14 L 364.80,391.60 L 366.40,390.09 L 368.00,388.60 L 369.60,387.14 L 371.20,385.71 L 372.80,384.32 L 374.40,382.98 L 376.00,381.68 L 377.60,380.44 L 379.20,379.26 L 380.80,378.15 L 382.40,377.10 L 384.00,376.12 L 385.60,375.23 L 387.20,374.42 L 388.80,373.69 L 390.40,373.05 L 392.00,372.51 L 393.60,372.06 L 395.20,371.71 L 396.80,371.45 L 398.40,371.30 L 400.00,371.25 L 401.60,371.30 L 403.20,371.45 L 404.80,371.71 L 406.40,372.06 L 408.00,372.51 L 409.60,373.05 L 411.20,373.69 L 412.80,374.42 L 414.40,375.23 L 416.00,376.12 L 417.60,377.10 L 419.20,378.15 L 420.80,379.26 L 422.40,380.44 L 424.00,381.68 L 425.60,382.98 L 427.20,384.32 L 428.80,385.71 L 430.40,387.14 L 432.00,388.60 L 433.60,390.09 L 435.20,391.60 L 436.80,393.14 L 438.40,394.68 L 440.00,396.24 L 441.60,397.80 L 443.20,399.37 L 444.80,400.93 L 446.40,402.48 L 448.00,404.03 L 449.60,405.56 L 451.20,407.08 L 452.80,408.58 L 454.40,410.05 L 456.00,411.51 L 457.60,412.94 L 459.20,414.34 L 460.80,415.72 L 462.40,417.06 L 464.00,418.38 L 465.60,419.66 L 467.20,420.91 L 468.80,422.13 L 470.40,423.31 L 472.00,424.47 L 473.60,425.58 L 475.20,426.67 L 476.80,427.72 L 478.40,428.73 L 480.00,429.72 L 481.60,430.67 L 483.20,431.58 L 484.80,432.47 L 486.40,433.32 L 488.00,434.15 L 489.60,434.94 L 491.20,435.70 L 492.80,436.43 L 494.40,437.14 L 496.00,437.82 L 497.60,438.47 L 499.20,439.09 L 500.80,439.69 L 502.40,440.27 L 504.00,440.82 L 505.60,441.35 L 507.20,441.86 L 508.80,442.34 L 510.40,442.81 L 512.00,443.25 L 513.60,443.68 L 515.20,444.09 L 516.80,444.48 L 518.40,444.85 L 520.00,445.20 L 521.60,445.54 L 523.20,445.87 L 524.80,446.18 L 526.40,446.48 L 528.00,446.76 L 529.60,447.03 L 531.20,447.29 L 532.80,447.53 L 534.40,447.77 L 536.00,447.99 L 537.60,448.21 L 539.20,448.41 L 540.80,448.61 L 542.40,448.79 L 544.00,448.97 L 545.60,449.14 L 547.20,449.30 L 548.80,449.45 L 550.40,449.60 L 552.00,449.74 L 553.60,449.87 L 555.20,450.00 L 556.80,450.12 L 558.40,450.23 L 560.00,450.34 L 561.60,450.44 L 563.20,450.54 L 564.80,450.64 L 566.40,450.73 L 568.00,450.81 L 569.60,450.89 L 571.20,450.97 L 572.80,451.05 L 574.40,451.12 L 576.00,451.18 L 577.60,451.25 L 579.20,451.31 L 580.80,451.36 L 582.40,451.42 L 584.00,451.47 L 585.60,451.52 L 587.20,451.57 L 588.80,451.61 L 590.40,451.66 L 592.00,451.70 L 593.60,451.74 L 595.20,451.77 L 596.80,451.81 L 598.40,451.84 L 600.00,451.88 L 601.60,451.91 L 603.20,451.93 L 604.80,451.96 L 606.40,451.99 L 608.00,452.01 L 609.60,452.04 L 611.20,452.06 L 612.80,452.08 L 614.40,452.10 L 616.00,452.12 L 617.60,452.14 L 619.20,452.16 L 620.80,452.17 L 622.40,452.19 L 624.00,452.20 L 625.60,452.22 L 627.20,452.23 L 628.80,452.25 L 630.40,452.26 L 632.00,452.27 L 633.60,452.28 L 635.20,452.29 L 636.80,452.30 L 638.40,452.31 L 640.00,452.32 L 641.60,452.33 L 643.20,452.34 L 644.80,452.35 L 646.40,452.35 L 648.00,452.36 L 649.60,452.37 L 651.20,452.37 L 652.80,452.38 L 654.40,452.39 L 656.00,452.39 L 657.60,452.40 L 659.20,452.40 L 660.80,452.41 L 662.40,452.41 L 664.00,452.42 L 665.60,452.42 L 667.20,452.42 L 668.80,452.43 L 670.40,452.43 L 672.00,452.43 L 673.60,452.44 L 675.20,452.44 L 676.80,452.44 L 678.40,452.45 L 680.00,452.45 L 681.60,452.45 L 683.20,452.45 L 684.80,452.46 L 686.40,452.46 L 688.00,452.46 L 689.60,452.46 L 691.20,452.46 L 692.80,452.47 L 694.40,452.47 L 696.00,452.47 L 697.60,452.47 L 699.20,452.47 L 700.80,452.47 L 702.40,452.47 L 704.00,452.48 L 705.60,452.48 L 707.20,452.48 L 708.80,452.48 L 710.40,452.48 L 712.00,452.48 L 713.60,452.48 L 715.20,452.48 L 716.80,452.48 L 718.40,452.48 L 720.00,452.49" fill="none" stroke="#F59E0B" stroke-width="2.5" stroke-dasharray="6,4" stroke-linecap="round" />
  <circle cx="400.00" cy="290.00" r="5" fill="#EF4444" stroke="#FFFFFF" stroke-width="1.5" />
  <text x="412.00" y="282.00" font-family="system-ui, -apple-system, sans-serif" font-size="12" font-weight="600" fill="#EF4444">对称中心 (0, 0.5)</text>
  <text x="412.00" y="298.00" font-family="system-ui, -apple-system, sans-serif" font-size="11" fill="#EF4444">此时 f'(x) = 0.25 最大</text>
  <circle cx="400.00" cy="371.25" r="5" fill="#10B981" stroke="#FFFFFF" stroke-width="1.5" />
  <text x="388.00" y="375.25" font-family="system-ui, -apple-system, sans-serif" font-size="12" font-weight="600" fill="#10B981" text-anchor="end">导数最大值 (0, 0.25)</text>
  <text x="25" y="290.00" transform="rotate(-90, 25, 290.00)" font-family="system-ui, -apple-system, sans-serif" font-size="13" font-weight="bold" fill="#1F2937" text-anchor="middle">输出值 y (因变量)</text>
  <text x="400.0" y="535" font-family="system-ui, -apple-system, sans-serif" font-size="13" font-weight="bold" fill="#1F2937" text-anchor="middle">输入值 x (自变量)</text>
</svg>