<svg width="800" height="500" viewBox="0 0 800 500" xmlns="http://www.w3.org/2000/svg">
<rect width="100%" height="100%" fill="#ffffff" />
<text x="400.0" y="30" font-family="sans-serif" font-size="20" text-anchor="middle" font-weight="bold">Sigmoid 与 ReLU 对比</text>
<line x1="60" y1="370.0" x2="750" y2="370.0" stroke="#333" stroke-width="2" />
<line x1="405.0" y1="50" x2="405.0" y2="450" stroke="#333" stroke-width="2" />
<line x1="60.0" y1="50" x2="60.0" y2="450" stroke="#ddd" stroke-width="1" />
<text x="60.0" y="470" font-family="sans-serif" font-size="12" text-anchor="middle" fill="#666">-4.0</text>
<line x1="129.0" y1="50" x2="129.0" y2="450" stroke="#ddd" stroke-width="1" />
<text x="129.0" y="470" font-family="sans-serif" font-size="12" text-anchor="middle" fill="#666">-3.2</text>
<line x1="198.0" y1="50" x2="198.0" y2="450" stroke="#ddd" stroke-width="1" />
<text x="198.0" y="470" font-family="sans-serif" font-size="12" text-anchor="middle" fill="#666">-2.4</text>
<line x1="267.0" y1="50" x2="267.0" y2="450" stroke="#ddd" stroke-width="1" />
<text x="267.0" y="470" font-family="sans-serif" font-size="12" text-anchor="middle" fill="#666">-1.6</text>
<line x1="336.0" y1="50" x2="336.0" y2="450" stroke="#ddd" stroke-width="1" />
<text x="336.0" y="470" font-family="sans-serif" font-size="12" text-anchor="middle" fill="#666">-0.8</text>
<line x1="405.0" y1="50" x2="405.0" y2="450" stroke="#ddd" stroke-width="1" />
<text x="405.0" y="470" font-family="sans-serif" font-size="12" text-anchor="middle" fill="#666">0.0</text>
<line x1="474.0" y1="50" x2="474.0" y2="450" stroke="#ddd" stroke-width="1" />
<text x="474.0" y="470" font-family="sans-serif" font-size="12" text-anchor="middle" fill="#666">0.8</text>
<line x1="543.0" y1="50" x2="543.0" y2="450" stroke="#ddd" stroke-width="1" />
<text x="543.0" y="470" font-family="sans-serif" font-size="12" text-anchor="middle" fill="#666">1.6</text>
<line x1="612.0" y1="50" x2="612.0" y2="450" stroke="#ddd" stroke-width="1" />
<text x="612.0" y="470" font-family="sans-serif" font-size="12" text-anchor="middle" fill="#666">2.4</text>
<line x1="681.0" y1="50" x2="681.0" y2="450" stroke="#ddd" stroke-width="1" />
<text x="681.0" y="470" font-family="sans-serif" font-size="12" text-anchor="middle" fill="#666">3.2</text>
<line x1="750.0" y1="50" x2="750.0" y2="450" stroke="#ddd" stroke-width="1" />
<text x="750.0" y="470" font-family="sans-serif" font-size="12" text-anchor="middle" fill="#666">4.0</text>
<line x1="60" y1="450.0" x2="750" y2="450.0" stroke="#ddd" stroke-width="1" />
<text x="50" y="454.0" font-family="sans-serif" font-size="12" text-anchor="end" fill="#666">-1.0</text>
<line x1="60" y1="370.0" x2="750" y2="370.0" stroke="#ddd" stroke-width="1" />
<text x="50" y="374.0" font-family="sans-serif" font-size="12" text-anchor="end" fill="#666">0.0</text>
<line x1="60" y1="290.0" x2="750" y2="290.0" stroke="#ddd" stroke-width="1" />
<text x="50" y="294.0" font-family="sans-serif" font-size="12" text-anchor="end" fill="#666">1.0</text>
<line x1="60" y1="210.0" x2="750" y2="210.0" stroke="#ddd" stroke-width="1" />
<text x="50" y="214.0" font-family="sans-serif" font-size="12" text-anchor="end" fill="#666">2.0</text>
<line x1="60" y1="130.0" x2="750" y2="130.0" stroke="#ddd" stroke-width="1" />
<text x="50" y="134.0" font-family="sans-serif" font-size="12" text-anchor="end" fill="#666">3.0</text>
<line x1="60" y1="50.0" x2="750" y2="50.0" stroke="#ddd" stroke-width="1" />
<text x="50" y="54.0" font-family="sans-serif" font-size="12" text-anchor="end" fill="#666">4.0</text>
<polyline points="60.0,368.5611032030327 63.45,368.50347920365164 66.9,368.44359323454455 70.35000000000001,368.38136023233716 73.80000000000001,368.3166922383625 77.25000000000001,368.2494983251096 80.70000000000002,368.17968452297566 84.15000000000002,368.1071537475631 87.6,368.0318057277808 91.04999999999998,367.9535369350394 94.5,367.8722405138507 97.94999999999999,367.78780621417417 101.4,367.7001203258768 104.85,367.60906561570914 108.30000000000001,367.5145212672266 111.75,367.41636282412395 115.20000000000002,367.31446213748137 118.65,367.20868731746106 122.09999999999998,367.0989026900281 125.54999999999998,366.9849687593115 129.0,366.86674217625887 132.45,366.7440757142827 135.89999999999998,366.6168182526373 139.35,366.4848147683087 142.8,366.34790633724447 146.25,366.20593014579464 149.7,366.0587195132779 153.15,365.9061039266327 156.60000000000002,365.7479090881549 160.05,365.58395697736523 163.5,365.4140659280905 166.95000000000002,365.23805072187986 170.40000000000003,365.0557226989129 173.85000000000002,364.86688988758607 177.3,364.67135715399274 180.75,364.4689263725323 184.2,364.2593966188999 187.64999999999998,364.04256438671774 191.1,363.8182238290672 194.55,363.586167026175 198.0,363.3461842804862 201.44999999999996,363.09806444032665 204.89999999999998,362.84159525331506 208.34999999999997,362.57656375062743 211.79999999999998,362.3027566631446 215.24999999999997,362.01996087042517 218.7,361.72796388334007 222.14999999999998,361.42655436107776 225.6,361.1155226630874 229.04999999999998,360.794661436356 232.5,360.4637662382306 235.95000000000002,360.1226361947821 239.4,359.7710746944735 242.85000000000002,359.4088901166348 246.3,359.03589659396323 249.75000000000003,358.65191480796096 253.20000000000002,358.2567728158894 256.65,357.85030690746726 260.1,357.4323624891638 263.54999999999995,357.0027949935443 267.0,356.56147081071396 270.45,356.1082682384796 273.9,355.64307844741387 277.35,355.1658064565614 280.8,354.6763721150826 284.25,354.1747110846865 287.70000000000005,353.6607758172727 291.15,353.1345365217802 294.6,352.595982113849 298.04999999999995,352.0451211415259 301.5,351.48198267992143 304.95,350.90661718743286 308.4,350.3190973159158 311.85,349.719518667013 315.29999999999995,349.1080004867399 318.75,348.4846862904004 322.2,347.8497444099512 325.65000000000003,347.20336845607915 329.1,346.5457776874854 332.55,345.87721728020307 336.0,345.197958490209 339.45000000000005,344.508298703122 342.9,343.8085613654208 346.34999999999997,343.0990957923482 349.8,342.38027684850556 353.25,341.65250449806365 356.7,340.9162032225253 360.15,340.17182130505563 363.6,339.4198299815399 367.05,338.6607224597211 370.5,337.89501280899617 373.95,337.1232347246932 377.40000000000003,336.34594017189994 380.85,335.56369791513833 384.29999999999995,334.77709194137543 387.75,333.98671978499823 391.2,333.19319076444526 394.65,332.39712414116576 398.09999999999997,331.59914721244655 401.55,330.79989335039727 405.0,330.0 408.45,329.2001066496028 411.90000000000003,328.40085278755345 415.35,327.60287585883424 418.8,326.80680923555474 422.25,326.01328021500177 425.70000000000005,325.22290805862457 429.15000000000003,324.43630208486167 432.6,323.6540598281 436.05,322.87676527530675 439.50000000000006,322.10498719100383 442.95000000000005,321.3392775402789 446.40000000000003,320.5801700184601 449.84999999999997,319.8281786949443 453.29999999999995,319.08379677747473 456.74999999999994,318.34749550193635 460.2,317.61972315149444 463.65,316.9009042076518 467.09999999999997,316.1914386345792 470.54999999999995,315.491701296878 474.0,314.802041509791 477.45,314.1227827197969 480.9,313.4542223125146 484.34999999999997,312.79663154392085 487.8,312.1502555900488 491.25,311.5153137095996 494.7,310.8919995132601 498.15000000000003,310.28048133298705 501.6,309.6809026840841 505.05,309.09338281256714 508.5,308.51801732007857 511.95000000000005,307.9548788584741 515.4000000000001,307.404017886151 518.85,306.8654634782198 522.3,306.3392241827273 525.75,305.8252889153135 529.2,305.3236278849174 532.6500000000001,304.8341935434386 536.0999999999999,304.35692155258613 539.55,303.8917317615204 543.0,303.43852918928604 546.45,302.9972050064557 549.9,302.5676375108362 553.3499999999999,302.14969309253274 556.8,301.7432271841106 560.25,301.348085192039 563.7,300.96410340603677 567.15,300.5911098833652 570.5999999999999,300.2289253055265 574.05,299.8773638052179 577.5,299.53623376176944 580.95,299.205338563644 584.4,298.8844773369126 587.85,298.5734456389223 591.3000000000001,298.27203611666 594.75,297.98003912957483 598.2,297.6972433368554 601.65,297.42343624937257 605.1,297.15840474668494 608.5500000000001,296.90193555967335 612.0,296.6538157195138 615.45,296.413832973825 618.9000000000001,296.18177617093284 622.3499999999999,295.9574356132822 625.8,295.74060338110013 629.25,295.5310736274678 632.6999999999999,295.32864284600726 636.15,295.13311011241393 639.6,294.9442773010871 643.05,294.76194927812014 646.5,294.5859340719095 649.9499999999999,294.41604302263477 653.4,294.25209091184513 656.85,294.0938960733673 660.3,293.9412804867221 663.75,293.7940698542053 667.2,293.65209366275553 670.65,293.51518523169125 674.1,293.3831817473627 677.5500000000001,293.25592428571736 681.0,293.13325782374113 684.45,293.0150312406885 687.9,292.9010973099719 691.35,292.79131268253894 694.8000000000001,292.6855378625186 698.25,292.583637175876 701.7,292.4854787327734 705.1500000000001,292.39093438429086 708.5999999999999,292.2998796741232 712.05,292.2121937858259 715.5,292.1277594861493 718.9499999999999,292.04646306496056 722.4,291.9681942722192 725.85,291.8928462524369 729.3,291.82031547702434 732.75,291.7505016748904 736.1999999999999,291.6833077616375 739.65,291.61863976766284 743.1,291.55640676545545 746.55,291.49652079634836 750.0,291.43889679696736" fill="none" stroke="#e63946" stroke-width="4"  />
<line x1="80" y1="60" x2="110" y2="60" stroke="#e63946" stroke-width="4"  />
<text x="120" y="64" font-family="sans-serif" font-size="14" fill="#333">Sigmoid (常用于输出层/门控)</text>
<polyline points="60.0,370.0 63.45,370.0 66.9,370.0 70.35000000000001,370.0 73.80000000000001,370.0 77.25000000000001,370.0 80.70000000000002,370.0 84.15000000000002,370.0 87.6,370.0 91.04999999999998,370.0 94.5,370.0 97.94999999999999,370.0 101.4,370.0 104.85,370.0 108.30000000000001,370.0 111.75,370.0 115.20000000000002,370.0 118.65,370.0 122.09999999999998,370.0 125.54999999999998,370.0 129.0,370.0 132.45,370.0 135.89999999999998,370.0 139.35,370.0 142.8,370.0 146.25,370.0 149.7,370.0 153.15,370.0 156.60000000000002,370.0 160.05,370.0 163.5,370.0 166.95000000000002,370.0 170.40000000000003,370.0 173.85000000000002,370.0 177.3,370.0 180.75,370.0 184.2,370.0 187.64999999999998,370.0 191.1,370.0 194.55,370.0 198.0,370.0 201.44999999999996,370.0 204.89999999999998,370.0 208.34999999999997,370.0 211.79999999999998,370.0 215.24999999999997,370.0 218.7,370.0 222.14999999999998,370.0 225.6,370.0 229.04999999999998,370.0 232.5,370.0 235.95000000000002,370.0 239.4,370.0 242.85000000000002,370.0 246.3,370.0 249.75000000000003,370.0 253.20000000000002,370.0 256.65,370.0 260.1,370.0 263.54999999999995,370.0 267.0,370.0 270.45,370.0 273.9,370.0 277.35,370.0 280.8,370.0 284.25,370.0 287.70000000000005,370.0 291.15,370.0 294.6,370.0 298.04999999999995,370.0 301.5,370.0 304.95,370.0 308.4,370.0 311.85,370.0 315.29999999999995,370.0 318.75,370.0 322.2,370.0 325.65000000000003,370.0 329.1,370.0 332.55,370.0 336.0,370.0 339.45000000000005,370.0 342.9,370.0 346.34999999999997,370.0 349.8,370.0 353.25,370.0 356.7,370.0 360.15,370.0 363.6,370.0 367.05,370.0 370.5,370.0 373.95,370.0 377.40000000000003,370.0 380.85,370.0 384.29999999999995,370.0 387.75,370.0 391.2,370.0 394.65,370.0 398.09999999999997,370.0 401.55,370.0 405.0,370.0 408.45,366.8 411.90000000000003,363.6 415.35,360.4 418.8,357.2 422.25,354.0 425.70000000000005,350.79999999999995 429.15000000000003,347.59999999999997 432.6,344.4 436.05,341.2 439.50000000000006,338.0 442.95000000000005,334.79999999999995 446.40000000000003,331.59999999999997 449.84999999999997,328.40000000000003 453.29999999999995,325.20000000000005 456.74999999999994,322.0 460.2,318.8 463.65,315.6 467.09999999999997,312.4 470.54999999999995,309.20000000000005 474.0,306.0 477.45,302.8 480.9,299.6 484.34999999999997,296.4 487.8,293.2 491.25,290.0 494.7,286.79999999999995 498.15000000000003,283.6 501.6,280.4 505.05,277.2 508.5,274.0 511.95000000000005,270.79999999999995 515.4000000000001,267.59999999999997 518.85,264.4 522.3,261.19999999999993 525.75,258.0 529.2,254.79999999999995 532.6500000000001,251.59999999999997 536.0999999999999,248.40000000000003 539.55,245.20000000000005 543.0,242.00000000000003 546.45,238.80000000000004 549.9,235.60000000000002 553.3499999999999,232.40000000000003 556.8,229.20000000000002 560.25,226.00000000000003 563.7,222.8 567.15,219.60000000000002 570.5999999999999,216.4 574.05,213.20000000000002 577.5,210.0 580.95,206.8 584.4,203.6 587.85,200.4 591.3000000000001,197.2 594.75,194.0 598.2,190.8 601.65,187.59999999999997 605.1,184.39999999999998 608.5500000000001,181.2 612.0,178.0 615.45,174.79999999999995 618.9000000000001,171.59999999999997 622.3499999999999,168.40000000000003 625.8,165.2 629.25,162.0 632.6999999999999,158.8 636.15,155.60000000000002 639.6,152.39999999999998 643.05,149.2 646.5,146.0 649.9499999999999,142.8 653.4,139.59999999999997 656.85,136.39999999999998 660.3,133.2 663.75,130.0 667.2,126.79999999999995 670.65,123.59999999999997 674.1,120.39999999999998 677.5500000000001,117.19999999999999 681.0,113.99999999999994 684.45,110.79999999999995 687.9,107.59999999999997 691.35,104.39999999999998 694.8000000000001,101.19999999999993 698.25,97.99999999999994 701.7,94.79999999999995 705.1500000000001,91.59999999999997 708.5999999999999,88.40000000000003 712.05,85.20000000000005 715.5,82.0 718.9499999999999,78.80000000000001 722.4,75.60000000000002 725.85,72.40000000000003 729.3,69.20000000000005 732.75,66.0 736.1999999999999,62.80000000000001 739.65,59.60000000000002 743.1,56.39999999999998 746.55,53.19999999999999 750.0,50.0" fill="none" stroke="#1d3557" stroke-width="3" stroke-dasharray="5,5" />
<line x1="80" y1="85" x2="110" y2="85" stroke="#1d3557" stroke-width="3" stroke-dasharray="5,5" />
<text x="120" y="89" font-family="sans-serif" font-size="14" fill="#333">ReLU (常用于隐藏层)</text>
</svg>