<svg xmlns="http://www.w3.org/2000/svg" viewBox="0 0 960 360"><rect width="960" height="360" rx="16" fill="#FAFAFB" stroke="#E5E7EB" stroke-width="2"/>
<text x="480.0" y="40" font-family="system-ui, sans-serif" font-size="20" font-weight="bold" fill="#1F2937" text-anchor="middle">魔法三参数：w, b, c 如何捏造 Sigmoid 形状</text>
<text x="150" y="80" font-family="system-ui, sans-serif" font-size="16" font-weight="600" fill="#374151" text-anchor="middle">1. 改变 w (权重) - 控制陡峭度</text>
<line x1="20" y1="287.06" x2="280" y2="287.06" stroke="#E5E7EB" stroke-width="1" />
<line x1="20" y1="222.35" x2="280" y2="222.35" stroke="#9CA3AF" stroke-width="1.5" />
<text x="15" y="226.35" font-family="sans-serif" font-size="10" fill="#6B7280" text-anchor="end">0</text>
<line x1="20" y1="157.65" x2="280" y2="157.65" stroke="#E5E7EB" stroke-width="1" />
<text x="15" y="161.65" font-family="sans-serif" font-size="10" fill="#6B7280" text-anchor="end">1</text>
<line x1="20" y1="92.94" x2="280" y2="92.94" stroke="#E5E7EB" stroke-width="1" />
<line x1="150.00" y1="80" x2="150.00" y2="310" stroke="#9CA3AF" stroke-width="1.5" stroke-dasharray="4,4" />
<path d="M 20.00,222.19 L 21.30,222.18 L 22.60,222.17 L 23.90,222.16 L 25.20,222.15 L 26.50,222.14 L 27.80,222.12 L 29.10,222.11 L 30.40,222.09 L 31.70,222.08 L 33.00,222.06 L 34.30,222.04 L 35.60,222.03 L 36.90,222.00 L 38.20,221.98 L 39.50,221.96 L 40.80,221.94 L 42.10,221.91 L 43.40,221.88 L 44.70,221.86 L 46.00,221.82 L 47.30,221.79 L 48.60,221.76 L 49.90,221.72 L 51.20,221.68 L 52.50,221.64 L 53.80,221.60 L 55.10,221.55 L 56.40,221.50 L 57.70,221.45 L 59.00,221.40 L 60.30,221.34 L 61.60,221.28 L 62.90,221.21 L 64.20,221.14 L 65.50,221.07 L 66.80,220.99 L 68.10,220.91 L 69.40,220.82 L 70.70,220.73 L 72.00,220.63 L 73.30,220.53 L 74.60,220.42 L 75.90,220.30 L 77.20,220.18 L 78.50,220.05 L 79.80,219.91 L 81.10,219.77 L 82.40,219.62 L 83.70,219.45 L 85.00,219.28 L 86.30,219.10 L 87.60,218.91 L 88.90,218.71 L 90.20,218.50 L 91.50,218.28 L 92.80,218.04 L 94.10,217.80 L 95.40,217.53 L 96.70,217.26 L 98.00,216.97 L 99.30,216.67 L 100.60,216.35 L 101.90,216.01 L 103.20,215.66 L 104.50,215.29 L 105.80,214.91 L 107.10,214.50 L 108.40,214.08 L 109.70,213.64 L 111.00,213.17 L 112.30,212.69 L 113.60,212.19 L 114.90,211.66 L 116.20,211.12 L 117.50,210.55 L 118.80,209.96 L 120.10,209.35 L 121.40,208.71 L 122.70,208.05 L 124.00,207.38 L 125.30,206.67 L 126.60,205.95 L 127.90,205.20 L 129.20,204.44 L 130.50,203.65 L 131.80,202.84 L 133.10,202.01 L 134.40,201.17 L 135.70,200.31 L 137.00,199.42 L 138.30,198.53 L 139.60,197.62 L 140.90,196.70 L 142.20,195.76 L 143.50,194.82 L 144.80,193.86 L 146.10,192.90 L 147.40,191.94 L 148.70,190.97 L 150.00,190.00 L 151.30,189.03 L 152.60,188.06 L 153.90,187.10 L 155.20,186.14 L 156.50,185.18 L 157.80,184.24 L 159.10,183.30 L 160.40,182.38 L 161.70,181.47 L 163.00,180.58 L 164.30,179.69 L 165.60,178.83 L 166.90,177.99 L 168.20,177.16 L 169.50,176.35 L 170.80,175.56 L 172.10,174.80 L 173.40,174.05 L 174.70,173.33 L 176.00,172.62 L 177.30,171.95 L 178.60,171.29 L 179.90,170.65 L 181.20,170.04 L 182.50,169.45 L 183.80,168.88 L 185.10,168.34 L 186.40,167.81 L 187.70,167.31 L 189.00,166.83 L 190.30,166.36 L 191.60,165.92 L 192.90,165.50 L 194.20,165.09 L 195.50,164.71 L 196.80,164.34 L 198.10,163.99 L 199.40,163.65 L 200.70,163.33 L 202.00,163.03 L 203.30,162.74 L 204.60,162.47 L 205.90,162.20 L 207.20,161.96 L 208.50,161.72 L 209.80,161.50 L 211.10,161.29 L 212.40,161.09 L 213.70,160.90 L 215.00,160.72 L 216.30,160.55 L 217.60,160.38 L 218.90,160.23 L 220.20,160.09 L 221.50,159.95 L 222.80,159.82 L 224.10,159.70 L 225.40,159.58 L 226.70,159.47 L 228.00,159.37 L 229.30,159.27 L 230.60,159.18 L 231.90,159.09 L 233.20,159.01 L 234.50,158.93 L 235.80,158.86 L 237.10,158.79 L 238.40,158.72 L 239.70,158.66 L 241.00,158.60 L 242.30,158.55 L 243.60,158.50 L 244.90,158.45 L 246.20,158.40 L 247.50,158.36 L 248.80,158.32 L 250.10,158.28 L 251.40,158.24 L 252.70,158.21 L 254.00,158.18 L 255.30,158.14 L 256.60,158.12 L 257.90,158.09 L 259.20,158.06 L 260.50,158.04 L 261.80,158.02 L 263.10,158.00 L 264.40,157.97 L 265.70,157.96 L 267.00,157.94 L 268.30,157.92 L 269.60,157.91 L 270.90,157.89 L 272.20,157.88 L 273.50,157.86 L 274.80,157.85 L 276.10,157.84 L 277.40,157.83 L 278.70,157.82 L 280.00,157.81" fill="none" stroke="#9CA3AF" stroke-width="2" stroke-linecap="round" />
<rect x="25" y="330" width="12" height="4" fill="#9CA3AF"/>
<text x="41" y="335" font-family="sans-serif" font-size="11" font-weight="600" fill="#4B5563">w=1 (标准)</text>
<path d="M 20.00,222.35 L 21.30,222.35 L 22.60,222.35 L 23.90,222.35 L 25.20,222.35 L 26.50,222.35 L 27.80,222.35 L 29.10,222.35 L 30.40,222.35 L 31.70,222.35 L 33.00,222.35 L 34.30,222.35 L 35.60,222.35 L 36.90,222.35 L 38.20,222.35 L 39.50,222.35 L 40.80,222.35 L 42.10,222.35 L 43.40,222.35 L 44.70,222.35 L 46.00,222.35 L 47.30,222.35 L 48.60,222.35 L 49.90,222.35 L 51.20,222.35 L 52.50,222.35 L 53.80,222.35 L 55.10,222.35 L 56.40,222.35 L 57.70,222.35 L 59.00,222.35 L 60.30,222.35 L 61.60,222.35 L 62.90,222.35 L 64.20,222.35 L 65.50,222.35 L 66.80,222.35 L 68.10,222.35 L 69.40,222.35 L 70.70,222.35 L 72.00,222.35 L 73.30,222.35 L 74.60,222.35 L 75.90,222.35 L 77.20,222.35 L 78.50,222.35 L 79.80,222.35 L 81.10,222.35 L 82.40,222.35 L 83.70,222.35 L 85.00,222.35 L 86.30,222.35 L 87.60,222.35 L 88.90,222.35 L 90.20,222.35 L 91.50,222.35 L 92.80,222.35 L 94.10,222.35 L 95.40,222.35 L 96.70,222.35 L 98.00,222.35 L 99.30,222.35 L 100.60,222.35 L 101.90,222.35 L 103.20,222.35 L 104.50,222.35 L 105.80,222.35 L 107.10,222.35 L 108.40,222.35 L 109.70,222.35 L 111.00,222.34 L 112.30,222.34 L 113.60,222.34 L 114.90,222.33 L 116.20,222.33 L 117.50,222.32 L 118.80,222.30 L 120.10,222.29 L 121.40,222.27 L 122.70,222.23 L 124.00,222.19 L 125.30,222.14 L 126.60,222.06 L 127.90,221.96 L 129.20,221.82 L 130.50,221.64 L 131.80,221.40 L 133.10,221.07 L 134.40,220.63 L 135.70,220.05 L 137.00,219.28 L 138.30,218.28 L 139.60,216.97 L 140.90,215.29 L 142.20,213.17 L 143.50,210.55 L 144.80,207.38 L 146.10,203.65 L 147.40,199.42 L 148.70,194.82 L 150.00,190.00 L 151.30,185.18 L 152.60,180.58 L 153.90,176.35 L 155.20,172.62 L 156.50,169.45 L 157.80,166.83 L 159.10,164.71 L 160.40,163.03 L 161.70,161.72 L 163.00,160.72 L 164.30,159.95 L 165.60,159.37 L 166.90,158.93 L 168.20,158.60 L 169.50,158.36 L 170.80,158.18 L 172.10,158.04 L 173.40,157.94 L 174.70,157.86 L 176.00,157.81 L 177.30,157.77 L 178.60,157.73 L 179.90,157.71 L 181.20,157.70 L 182.50,157.68 L 183.80,157.67 L 185.10,157.67 L 186.40,157.66 L 187.70,157.66 L 189.00,157.66 L 190.30,157.65 L 191.60,157.65 L 192.90,157.65 L 194.20,157.65 L 195.50,157.65 L 196.80,157.65 L 198.10,157.65 L 199.40,157.65 L 200.70,157.65 L 202.00,157.65 L 203.30,157.65 L 204.60,157.65 L 205.90,157.65 L 207.20,157.65 L 208.50,157.65 L 209.80,157.65 L 211.10,157.65 L 212.40,157.65 L 213.70,157.65 L 215.00,157.65 L 216.30,157.65 L 217.60,157.65 L 218.90,157.65 L 220.20,157.65 L 221.50,157.65 L 222.80,157.65 L 224.10,157.65 L 225.40,157.65 L 226.70,157.65 L 228.00,157.65 L 229.30,157.65 L 230.60,157.65 L 231.90,157.65 L 233.20,157.65 L 234.50,157.65 L 235.80,157.65 L 237.10,157.65 L 238.40,157.65 L 239.70,157.65 L 241.00,157.65 L 242.30,157.65 L 243.60,157.65 L 244.90,157.65 L 246.20,157.65 L 247.50,157.65 L 248.80,157.65 L 250.10,157.65 L 251.40,157.65 L 252.70,157.65 L 254.00,157.65 L 255.30,157.65 L 256.60,157.65 L 257.90,157.65 L 259.20,157.65 L 260.50,157.65 L 261.80,157.65 L 263.10,157.65 L 264.40,157.65 L 265.70,157.65 L 267.00,157.65 L 268.30,157.65 L 269.60,157.65 L 270.90,157.65 L 272.20,157.65 L 273.50,157.65 L 274.80,157.65 L 276.10,157.65 L 277.40,157.65 L 278.70,157.65 L 280.00,157.65" fill="none" stroke="#EF4444" stroke-width="2.5" stroke-linecap="round" />
<rect x="110" y="330" width="12" height="4" fill="#EF4444"/>
<text x="126" y="335" font-family="sans-serif" font-size="11" font-weight="600" fill="#4B5563">w=5 (变陡峭)</text>
<path d="M 20.00,213.17 L 21.30,213.03 L 22.60,212.89 L 23.90,212.74 L 25.20,212.59 L 26.50,212.44 L 27.80,212.29 L 29.10,212.14 L 30.40,211.98 L 31.70,211.82 L 33.00,211.66 L 34.30,211.50 L 35.60,211.34 L 36.90,211.17 L 38.20,211.01 L 39.50,210.84 L 40.80,210.66 L 42.10,210.49 L 43.40,210.32 L 44.70,210.14 L 46.00,209.96 L 47.30,209.78 L 48.60,209.59 L 49.90,209.41 L 51.20,209.22 L 52.50,209.03 L 53.80,208.84 L 55.10,208.65 L 56.40,208.45 L 57.70,208.25 L 59.00,208.05 L 60.30,207.85 L 61.60,207.65 L 62.90,207.44 L 64.20,207.24 L 65.50,207.03 L 66.80,206.82 L 68.10,206.60 L 69.40,206.39 L 70.70,206.17 L 72.00,205.95 L 73.30,205.73 L 74.60,205.50 L 75.90,205.28 L 77.20,205.05 L 78.50,204.82 L 79.80,204.59 L 81.10,204.36 L 82.40,204.12 L 83.70,203.89 L 85.00,203.65 L 86.30,203.41 L 87.60,203.17 L 88.90,202.92 L 90.20,202.68 L 91.50,202.43 L 92.80,202.18 L 94.10,201.93 L 95.40,201.68 L 96.70,201.42 L 98.00,201.17 L 99.30,200.91 L 100.60,200.65 L 101.90,200.39 L 103.20,200.13 L 104.50,199.87 L 105.80,199.60 L 107.10,199.34 L 108.40,199.07 L 109.70,198.80 L 111.00,198.53 L 112.30,198.26 L 113.60,197.98 L 114.90,197.71 L 116.20,197.44 L 117.50,197.16 L 118.80,196.88 L 120.10,196.60 L 121.40,196.32 L 122.70,196.04 L 124.00,195.76 L 125.30,195.48 L 126.60,195.20 L 127.90,194.91 L 129.20,194.63 L 130.50,194.34 L 131.80,194.06 L 133.10,193.77 L 134.40,193.48 L 135.70,193.19 L 137.00,192.90 L 138.30,192.61 L 139.60,192.33 L 140.90,192.04 L 142.20,191.75 L 143.50,191.45 L 144.80,191.16 L 146.10,190.87 L 147.40,190.58 L 148.70,190.29 L 150.00,190.00 L 151.30,189.71 L 152.60,189.42 L 153.90,189.13 L 155.20,188.84 L 156.50,188.55 L 157.80,188.25 L 159.10,187.96 L 160.40,187.67 L 161.70,187.39 L 163.00,187.10 L 164.30,186.81 L 165.60,186.52 L 166.90,186.23 L 168.20,185.94 L 169.50,185.66 L 170.80,185.37 L 172.10,185.09 L 173.40,184.80 L 174.70,184.52 L 176.00,184.24 L 177.30,183.96 L 178.60,183.68 L 179.90,183.40 L 181.20,183.12 L 182.50,182.84 L 183.80,182.56 L 185.10,182.29 L 186.40,182.02 L 187.70,181.74 L 189.00,181.47 L 190.30,181.20 L 191.60,180.93 L 192.90,180.66 L 194.20,180.40 L 195.50,180.13 L 196.80,179.87 L 198.10,179.61 L 199.40,179.35 L 200.70,179.09 L 202.00,178.83 L 203.30,178.58 L 204.60,178.32 L 205.90,178.07 L 207.20,177.82 L 208.50,177.57 L 209.80,177.32 L 211.10,177.08 L 212.40,176.83 L 213.70,176.59 L 215.00,176.35 L 216.30,176.11 L 217.60,175.88 L 218.90,175.64 L 220.20,175.41 L 221.50,175.18 L 222.80,174.95 L 224.10,174.72 L 225.40,174.50 L 226.70,174.27 L 228.00,174.05 L 229.30,173.83 L 230.60,173.61 L 231.90,173.40 L 233.20,173.18 L 234.50,172.97 L 235.80,172.76 L 237.10,172.56 L 238.40,172.35 L 239.70,172.15 L 241.00,171.95 L 242.30,171.75 L 243.60,171.55 L 244.90,171.35 L 246.20,171.16 L 247.50,170.97 L 248.80,170.78 L 250.10,170.59 L 251.40,170.41 L 252.70,170.22 L 254.00,170.04 L 255.30,169.86 L 256.60,169.68 L 257.90,169.51 L 259.20,169.34 L 260.50,169.16 L 261.80,168.99 L 263.10,168.83 L 264.40,168.66 L 265.70,168.50 L 267.00,168.34 L 268.30,168.18 L 269.60,168.02 L 270.90,167.86 L 272.20,167.71 L 273.50,167.56 L 274.80,167.41 L 276.10,167.26 L 277.40,167.11 L 278.70,166.97 L 280.00,166.83" fill="none" stroke="#3B82F6" stroke-width="2.5" stroke-linecap="round" />
<rect x="195" y="330" width="12" height="4" fill="#3B82F6"/>
<text x="211" y="335" font-family="sans-serif" font-size="11" font-weight="600" fill="#4B5563">w=0.3 (变平缓)</text>
<text x="470" y="80" font-family="system-ui, sans-serif" font-size="16" font-weight="600" fill="#374151" text-anchor="middle">2. 改变 b (偏置) - 控制左右平移</text>
<line x1="340" y1="287.06" x2="600" y2="287.06" stroke="#E5E7EB" stroke-width="1" />
<line x1="340" y1="222.35" x2="600" y2="222.35" stroke="#9CA3AF" stroke-width="1.5" />
<text x="335" y="226.35" font-family="sans-serif" font-size="10" fill="#6B7280" text-anchor="end">0</text>
<line x1="340" y1="157.65" x2="600" y2="157.65" stroke="#E5E7EB" stroke-width="1" />
<text x="335" y="161.65" font-family="sans-serif" font-size="10" fill="#6B7280" text-anchor="end">1</text>
<line x1="340" y1="92.94" x2="600" y2="92.94" stroke="#E5E7EB" stroke-width="1" />
<line x1="470.00" y1="80" x2="470.00" y2="310" stroke="#9CA3AF" stroke-width="1.5" stroke-dasharray="4,4" />
<path d="M 340.00,222.35 L 341.30,222.35 L 342.60,222.35 L 343.90,222.35 L 345.20,222.35 L 346.50,222.35 L 347.80,222.35 L 349.10,222.35 L 350.40,222.35 L 351.70,222.35 L 353.00,222.35 L 354.30,222.35 L 355.60,222.35 L 356.90,222.35 L 358.20,222.35 L 359.50,222.35 L 360.80,222.35 L 362.10,222.35 L 363.40,222.35 L 364.70,222.35 L 366.00,222.35 L 367.30,222.35 L 368.60,222.35 L 369.90,222.35 L 371.20,222.35 L 372.50,222.35 L 373.80,222.35 L 375.10,222.35 L 376.40,222.35 L 377.70,222.35 L 379.00,222.35 L 380.30,222.35 L 381.60,222.35 L 382.90,222.35 L 384.20,222.35 L 385.50,222.35 L 386.80,222.35 L 388.10,222.35 L 389.40,222.35 L 390.70,222.35 L 392.00,222.35 L 393.30,222.35 L 394.60,222.35 L 395.90,222.35 L 397.20,222.35 L 398.50,222.35 L 399.80,222.35 L 401.10,222.35 L 402.40,222.35 L 403.70,222.35 L 405.00,222.34 L 406.30,222.34 L 407.60,222.34 L 408.90,222.34 L 410.20,222.34 L 411.50,222.33 L 412.80,222.33 L 414.10,222.32 L 415.40,222.32 L 416.70,222.31 L 418.00,222.30 L 419.30,222.30 L 420.60,222.28 L 421.90,222.27 L 423.20,222.25 L 424.50,222.23 L 425.80,222.21 L 427.10,222.18 L 428.40,222.15 L 429.70,222.11 L 431.00,222.06 L 432.30,222.00 L 433.60,221.94 L 434.90,221.86 L 436.20,221.76 L 437.50,221.64 L 438.80,221.50 L 440.10,221.34 L 441.40,221.14 L 442.70,220.91 L 444.00,220.63 L 445.30,220.30 L 446.60,219.91 L 447.90,219.45 L 449.20,218.91 L 450.50,218.28 L 451.80,217.53 L 453.10,216.67 L 454.40,215.66 L 455.70,214.50 L 457.00,213.17 L 458.30,211.66 L 459.60,209.96 L 460.90,208.05 L 462.20,205.95 L 463.50,203.65 L 464.80,201.17 L 466.10,198.53 L 467.40,195.76 L 468.70,192.90 L 470.00,190.00 L 471.30,187.10 L 472.60,184.24 L 473.90,181.47 L 475.20,178.83 L 476.50,176.35 L 477.80,174.05 L 479.10,171.95 L 480.40,170.04 L 481.70,168.34 L 483.00,166.83 L 484.30,165.50 L 485.60,164.34 L 486.90,163.33 L 488.20,162.47 L 489.50,161.72 L 490.80,161.09 L 492.10,160.55 L 493.40,160.09 L 494.70,159.70 L 496.00,159.37 L 497.30,159.09 L 498.60,158.86 L 499.90,158.66 L 501.20,158.50 L 502.50,158.36 L 503.80,158.24 L 505.10,158.14 L 506.40,158.06 L 507.70,158.00 L 509.00,157.94 L 510.30,157.89 L 511.60,157.85 L 512.90,157.82 L 514.20,157.79 L 515.50,157.77 L 516.80,157.75 L 518.10,157.73 L 519.40,157.72 L 520.70,157.70 L 522.00,157.70 L 523.30,157.69 L 524.60,157.68 L 525.90,157.68 L 527.20,157.67 L 528.50,157.67 L 529.80,157.66 L 531.10,157.66 L 532.40,157.66 L 533.70,157.66 L 535.00,157.66 L 536.30,157.65 L 537.60,157.65 L 538.90,157.65 L 540.20,157.65 L 541.50,157.65 L 542.80,157.65 L 544.10,157.65 L 545.40,157.65 L 546.70,157.65 L 548.00,157.65 L 549.30,157.65 L 550.60,157.65 L 551.90,157.65 L 553.20,157.65 L 554.50,157.65 L 555.80,157.65 L 557.10,157.65 L 558.40,157.65 L 559.70,157.65 L 561.00,157.65 L 562.30,157.65 L 563.60,157.65 L 564.90,157.65 L 566.20,157.65 L 567.50,157.65 L 568.80,157.65 L 570.10,157.65 L 571.40,157.65 L 572.70,157.65 L 574.00,157.65 L 575.30,157.65 L 576.60,157.65 L 577.90,157.65 L 579.20,157.65 L 580.50,157.65 L 581.80,157.65 L 583.10,157.65 L 584.40,157.65 L 585.70,157.65 L 587.00,157.65 L 588.30,157.65 L 589.60,157.65 L 590.90,157.65 L 592.20,157.65 L 593.50,157.65 L 594.80,157.65 L 596.10,157.65 L 597.40,157.65 L 598.70,157.65 L 600.00,157.65" fill="none" stroke="#9CA3AF" stroke-width="2" stroke-linecap="round" />
<rect x="345" y="330" width="12" height="4" fill="#9CA3AF"/>
<text x="361" y="335" font-family="sans-serif" font-size="11" font-weight="600" fill="#4B5563">b=0 (居中)</text>
<path d="M 340.00,222.35 L 341.30,222.35 L 342.60,222.35 L 343.90,222.35 L 345.20,222.35 L 346.50,222.35 L 347.80,222.35 L 349.10,222.35 L 350.40,222.35 L 351.70,222.35 L 353.00,222.35 L 354.30,222.35 L 355.60,222.35 L 356.90,222.35 L 358.20,222.35 L 359.50,222.35 L 360.80,222.35 L 362.10,222.35 L 363.40,222.35 L 364.70,222.35 L 366.00,222.35 L 367.30,222.35 L 368.60,222.35 L 369.90,222.35 L 371.20,222.35 L 372.50,222.35 L 373.80,222.35 L 375.10,222.35 L 376.40,222.35 L 377.70,222.35 L 379.00,222.35 L 380.30,222.35 L 381.60,222.35 L 382.90,222.35 L 384.20,222.35 L 385.50,222.35 L 386.80,222.35 L 388.10,222.35 L 389.40,222.35 L 390.70,222.35 L 392.00,222.35 L 393.30,222.35 L 394.60,222.35 L 395.90,222.35 L 397.20,222.35 L 398.50,222.35 L 399.80,222.35 L 401.10,222.35 L 402.40,222.35 L 403.70,222.35 L 405.00,222.35 L 406.30,222.35 L 407.60,222.35 L 408.90,222.35 L 410.20,222.35 L 411.50,222.35 L 412.80,222.35 L 414.10,222.35 L 415.40,222.35 L 416.70,222.35 L 418.00,222.35 L 419.30,222.35 L 420.60,222.35 L 421.90,222.35 L 423.20,222.35 L 424.50,222.35 L 425.80,222.35 L 427.10,222.35 L 428.40,222.35 L 429.70,222.35 L 431.00,222.35 L 432.30,222.35 L 433.60,222.35 L 434.90,222.35 L 436.20,222.35 L 437.50,222.35 L 438.80,222.35 L 440.10,222.35 L 441.40,222.35 L 442.70,222.35 L 444.00,222.35 L 445.30,222.35 L 446.60,222.35 L 447.90,222.35 L 449.20,222.34 L 450.50,222.34 L 451.80,222.34 L 453.10,222.34 L 454.40,222.33 L 455.70,222.33 L 457.00,222.33 L 458.30,222.32 L 459.60,222.31 L 460.90,222.31 L 462.20,222.30 L 463.50,222.29 L 464.80,222.27 L 466.10,222.26 L 467.40,222.24 L 468.70,222.22 L 470.00,222.19 L 471.30,222.16 L 472.60,222.12 L 473.90,222.08 L 475.20,222.03 L 476.50,221.96 L 477.80,221.88 L 479.10,221.79 L 480.40,221.68 L 481.70,221.55 L 483.00,221.40 L 484.30,221.21 L 485.60,220.99 L 486.90,220.73 L 488.20,220.42 L 489.50,220.05 L 490.80,219.62 L 492.10,219.10 L 493.40,218.50 L 494.70,217.80 L 496.00,216.97 L 497.30,216.01 L 498.60,214.91 L 499.90,213.64 L 501.20,212.19 L 502.50,210.55 L 503.80,208.71 L 505.10,206.67 L 506.40,204.44 L 507.70,202.01 L 509.00,199.42 L 510.30,196.70 L 511.60,193.86 L 512.90,190.97 L 514.20,188.06 L 515.50,185.18 L 516.80,182.38 L 518.10,179.69 L 519.40,177.16 L 520.70,174.80 L 522.00,172.62 L 523.30,170.65 L 524.60,168.88 L 525.90,167.31 L 527.20,165.92 L 528.50,164.71 L 529.80,163.65 L 531.10,162.74 L 532.40,161.96 L 533.70,161.29 L 535.00,160.72 L 536.30,160.23 L 537.60,159.82 L 538.90,159.47 L 540.20,159.18 L 541.50,158.93 L 542.80,158.72 L 544.10,158.55 L 545.40,158.40 L 546.70,158.28 L 548.00,158.18 L 549.30,158.09 L 550.60,158.02 L 551.90,157.96 L 553.20,157.91 L 554.50,157.86 L 555.80,157.83 L 557.10,157.80 L 558.40,157.77 L 559.70,157.75 L 561.00,157.73 L 562.30,157.72 L 563.60,157.71 L 564.90,157.70 L 566.20,157.69 L 567.50,157.68 L 568.80,157.68 L 570.10,157.67 L 571.40,157.67 L 572.70,157.66 L 574.00,157.66 L 575.30,157.66 L 576.60,157.66 L 577.90,157.66 L 579.20,157.65 L 580.50,157.65 L 581.80,157.65 L 583.10,157.65 L 584.40,157.65 L 585.70,157.65 L 587.00,157.65 L 588.30,157.65 L 589.60,157.65 L 590.90,157.65 L 592.20,157.65 L 593.50,157.65 L 594.80,157.65 L 596.10,157.65 L 597.40,157.65 L 598.70,157.65 L 600.00,157.65" fill="none" stroke="#10B981" stroke-width="2.5" stroke-linecap="round" />
<rect x="430" y="330" width="12" height="4" fill="#10B981"/>
<text x="446" y="335" font-family="sans-serif" font-size="11" font-weight="600" fill="#4B5563">b=-6 (右移)</text>
<path d="M 340.00,222.35 L 341.30,222.35 L 342.60,222.35 L 343.90,222.35 L 345.20,222.35 L 346.50,222.35 L 347.80,222.35 L 349.10,222.35 L 350.40,222.35 L 351.70,222.35 L 353.00,222.35 L 354.30,222.35 L 355.60,222.35 L 356.90,222.35 L 358.20,222.35 L 359.50,222.35 L 360.80,222.35 L 362.10,222.34 L 363.40,222.34 L 364.70,222.34 L 366.00,222.34 L 367.30,222.34 L 368.60,222.33 L 369.90,222.33 L 371.20,222.32 L 372.50,222.32 L 373.80,222.31 L 375.10,222.30 L 376.40,222.29 L 377.70,222.28 L 379.00,222.27 L 380.30,222.25 L 381.60,222.23 L 382.90,222.20 L 384.20,222.17 L 385.50,222.14 L 386.80,222.09 L 388.10,222.04 L 389.40,221.98 L 390.70,221.91 L 392.00,221.82 L 393.30,221.72 L 394.60,221.60 L 395.90,221.45 L 397.20,221.28 L 398.50,221.07 L 399.80,220.82 L 401.10,220.53 L 402.40,220.18 L 403.70,219.77 L 405.00,219.28 L 406.30,218.71 L 407.60,218.04 L 408.90,217.26 L 410.20,216.35 L 411.50,215.29 L 412.80,214.08 L 414.10,212.69 L 415.40,211.12 L 416.70,209.35 L 418.00,207.38 L 419.30,205.20 L 420.60,202.84 L 421.90,200.31 L 423.20,197.62 L 424.50,194.82 L 425.80,191.94 L 427.10,189.03 L 428.40,186.14 L 429.70,183.30 L 431.00,180.58 L 432.30,177.99 L 433.60,175.56 L 434.90,173.33 L 436.20,171.29 L 437.50,169.45 L 438.80,167.81 L 440.10,166.36 L 441.40,165.09 L 442.70,163.99 L 444.00,163.03 L 445.30,162.20 L 446.60,161.50 L 447.90,160.90 L 449.20,160.38 L 450.50,159.95 L 451.80,159.58 L 453.10,159.27 L 454.40,159.01 L 455.70,158.79 L 457.00,158.60 L 458.30,158.45 L 459.60,158.32 L 460.90,158.21 L 462.20,158.12 L 463.50,158.04 L 464.80,157.97 L 466.10,157.92 L 467.40,157.88 L 468.70,157.84 L 470.00,157.81 L 471.30,157.78 L 472.60,157.76 L 473.90,157.74 L 475.20,157.73 L 476.50,157.71 L 477.80,157.70 L 479.10,157.69 L 480.40,157.69 L 481.70,157.68 L 483.00,157.67 L 484.30,157.67 L 485.60,157.67 L 486.90,157.66 L 488.20,157.66 L 489.50,157.66 L 490.80,157.66 L 492.10,157.65 L 493.40,157.65 L 494.70,157.65 L 496.00,157.65 L 497.30,157.65 L 498.60,157.65 L 499.90,157.65 L 501.20,157.65 L 502.50,157.65 L 503.80,157.65 L 505.10,157.65 L 506.40,157.65 L 507.70,157.65 L 509.00,157.65 L 510.30,157.65 L 511.60,157.65 L 512.90,157.65 L 514.20,157.65 L 515.50,157.65 L 516.80,157.65 L 518.10,157.65 L 519.40,157.65 L 520.70,157.65 L 522.00,157.65 L 523.30,157.65 L 524.60,157.65 L 525.90,157.65 L 527.20,157.65 L 528.50,157.65 L 529.80,157.65 L 531.10,157.65 L 532.40,157.65 L 533.70,157.65 L 535.00,157.65 L 536.30,157.65 L 537.60,157.65 L 538.90,157.65 L 540.20,157.65 L 541.50,157.65 L 542.80,157.65 L 544.10,157.65 L 545.40,157.65 L 546.70,157.65 L 548.00,157.65 L 549.30,157.65 L 550.60,157.65 L 551.90,157.65 L 553.20,157.65 L 554.50,157.65 L 555.80,157.65 L 557.10,157.65 L 558.40,157.65 L 559.70,157.65 L 561.00,157.65 L 562.30,157.65 L 563.60,157.65 L 564.90,157.65 L 566.20,157.65 L 567.50,157.65 L 568.80,157.65 L 570.10,157.65 L 571.40,157.65 L 572.70,157.65 L 574.00,157.65 L 575.30,157.65 L 576.60,157.65 L 577.90,157.65 L 579.20,157.65 L 580.50,157.65 L 581.80,157.65 L 583.10,157.65 L 584.40,157.65 L 585.70,157.65 L 587.00,157.65 L 588.30,157.65 L 589.60,157.65 L 590.90,157.65 L 592.20,157.65 L 593.50,157.65 L 594.80,157.65 L 596.10,157.65 L 597.40,157.65 L 598.70,157.65 L 600.00,157.65" fill="none" stroke="#F59E0B" stroke-width="2.5" stroke-linecap="round" />
<rect x="515" y="330" width="12" height="4" fill="#F59E0B"/>
<text x="531" y="335" font-family="sans-serif" font-size="11" font-weight="600" fill="#4B5563">b=6 (左移)</text>
<text x="790" y="80" font-family="system-ui, sans-serif" font-size="16" font-weight="600" fill="#374151" text-anchor="middle">3. 改变 c (缩放) - 控制振幅与反转</text>
<line x1="660" y1="287.06" x2="920" y2="287.06" stroke="#E5E7EB" stroke-width="1" />
<line x1="660" y1="222.35" x2="920" y2="222.35" stroke="#9CA3AF" stroke-width="1.5" />
<text x="655" y="226.35" font-family="sans-serif" font-size="10" fill="#6B7280" text-anchor="end">0</text>
<line x1="660" y1="157.65" x2="920" y2="157.65" stroke="#E5E7EB" stroke-width="1" />
<text x="655" y="161.65" font-family="sans-serif" font-size="10" fill="#6B7280" text-anchor="end">1</text>
<line x1="660" y1="92.94" x2="920" y2="92.94" stroke="#E5E7EB" stroke-width="1" />
<line x1="790.00" y1="80" x2="790.00" y2="310" stroke="#9CA3AF" stroke-width="1.5" stroke-dasharray="4,4" />
<path d="M 660.00,222.35 L 661.30,222.35 L 662.60,222.35 L 663.90,222.35 L 665.20,222.35 L 666.50,222.35 L 667.80,222.35 L 669.10,222.35 L 670.40,222.35 L 671.70,222.35 L 673.00,222.35 L 674.30,222.35 L 675.60,222.35 L 676.90,222.35 L 678.20,222.35 L 679.50,222.35 L 680.80,222.35 L 682.10,222.35 L 683.40,222.35 L 684.70,222.35 L 686.00,222.35 L 687.30,222.35 L 688.60,222.35 L 689.90,222.35 L 691.20,222.35 L 692.50,222.34 L 693.80,222.34 L 695.10,222.34 L 696.40,222.34 L 697.70,222.34 L 699.00,222.34 L 700.30,222.34 L 701.60,222.33 L 702.90,222.33 L 704.20,222.33 L 705.50,222.33 L 706.80,222.32 L 708.10,222.32 L 709.40,222.31 L 710.70,222.31 L 712.00,222.30 L 713.30,222.30 L 714.60,222.29 L 715.90,222.28 L 717.20,222.27 L 718.50,222.27 L 719.80,222.25 L 721.10,222.24 L 722.40,222.23 L 723.70,222.21 L 725.00,222.19 L 726.30,222.17 L 727.60,222.15 L 728.90,222.12 L 730.20,222.09 L 731.50,222.06 L 732.80,222.03 L 734.10,221.98 L 735.40,221.94 L 736.70,221.88 L 738.00,221.82 L 739.30,221.76 L 740.60,221.68 L 741.90,221.60 L 743.20,221.50 L 744.50,221.40 L 745.80,221.28 L 747.10,221.14 L 748.40,220.99 L 749.70,220.82 L 751.00,220.63 L 752.30,220.42 L 753.60,220.18 L 754.90,219.91 L 756.20,219.62 L 757.50,219.28 L 758.80,218.91 L 760.10,218.50 L 761.40,218.04 L 762.70,217.53 L 764.00,216.97 L 765.30,216.35 L 766.60,215.66 L 767.90,214.91 L 769.20,214.08 L 770.50,213.17 L 771.80,212.19 L 773.10,211.12 L 774.40,209.96 L 775.70,208.71 L 777.00,207.38 L 778.30,205.95 L 779.60,204.44 L 780.90,202.84 L 782.20,201.17 L 783.50,199.42 L 784.80,197.62 L 786.10,195.76 L 787.40,193.86 L 788.70,191.94 L 790.00,190.00 L 791.30,188.06 L 792.60,186.14 L 793.90,184.24 L 795.20,182.38 L 796.50,180.58 L 797.80,178.83 L 799.10,177.16 L 800.40,175.56 L 801.70,174.05 L 803.00,172.62 L 804.30,171.29 L 805.60,170.04 L 806.90,168.88 L 808.20,167.81 L 809.50,166.83 L 810.80,165.92 L 812.10,165.09 L 813.40,164.34 L 814.70,163.65 L 816.00,163.03 L 817.30,162.47 L 818.60,161.96 L 819.90,161.50 L 821.20,161.09 L 822.50,160.72 L 823.80,160.38 L 825.10,160.09 L 826.40,159.82 L 827.70,159.58 L 829.00,159.37 L 830.30,159.18 L 831.60,159.01 L 832.90,158.86 L 834.20,158.72 L 835.50,158.60 L 836.80,158.50 L 838.10,158.40 L 839.40,158.32 L 840.70,158.24 L 842.00,158.18 L 843.30,158.12 L 844.60,158.06 L 845.90,158.02 L 847.20,157.97 L 848.50,157.94 L 849.80,157.91 L 851.10,157.88 L 852.40,157.85 L 853.70,157.83 L 855.00,157.81 L 856.30,157.79 L 857.60,157.77 L 858.90,157.76 L 860.20,157.75 L 861.50,157.73 L 862.80,157.73 L 864.10,157.72 L 865.40,157.71 L 866.70,157.70 L 868.00,157.70 L 869.30,157.69 L 870.60,157.69 L 871.90,157.68 L 873.20,157.68 L 874.50,157.67 L 875.80,157.67 L 877.10,157.67 L 878.40,157.67 L 879.70,157.66 L 881.00,157.66 L 882.30,157.66 L 883.60,157.66 L 884.90,157.66 L 886.20,157.66 L 887.50,157.66 L 888.80,157.65 L 890.10,157.65 L 891.40,157.65 L 892.70,157.65 L 894.00,157.65 L 895.30,157.65 L 896.60,157.65 L 897.90,157.65 L 899.20,157.65 L 900.50,157.65 L 901.80,157.65 L 903.10,157.65 L 904.40,157.65 L 905.70,157.65 L 907.00,157.65 L 908.30,157.65 L 909.60,157.65 L 910.90,157.65 L 912.20,157.65 L 913.50,157.65 L 914.80,157.65 L 916.10,157.65 L 917.40,157.65 L 918.70,157.65 L 920.00,157.65" fill="none" stroke="#9CA3AF" stroke-width="2" stroke-linecap="round" />
<rect x="665" y="330" width="12" height="4" fill="#9CA3AF"/>
<text x="681" y="335" font-family="sans-serif" font-size="11" font-weight="600" fill="#4B5563">c=1 (标准)</text>
<path d="M 660.00,222.35 L 661.30,222.35 L 662.60,222.35 L 663.90,222.35 L 665.20,222.35 L 666.50,222.35 L 667.80,222.35 L 669.10,222.35 L 670.40,222.35 L 671.70,222.35 L 673.00,222.35 L 674.30,222.35 L 675.60,222.35 L 676.90,222.35 L 678.20,222.35 L 679.50,222.35 L 680.80,222.35 L 682.10,222.35 L 683.40,222.35 L 684.70,222.35 L 686.00,222.34 L 687.30,222.34 L 688.60,222.34 L 689.90,222.34 L 691.20,222.34 L 692.50,222.34 L 693.80,222.33 L 695.10,222.33 L 696.40,222.33 L 697.70,222.33 L 699.00,222.32 L 700.30,222.32 L 701.60,222.32 L 702.90,222.31 L 704.20,222.31 L 705.50,222.30 L 706.80,222.29 L 708.10,222.29 L 709.40,222.28 L 710.70,222.27 L 712.00,222.26 L 713.30,222.24 L 714.60,222.23 L 715.90,222.21 L 717.20,222.20 L 718.50,222.18 L 719.80,222.15 L 721.10,222.13 L 722.40,222.10 L 723.70,222.07 L 725.00,222.03 L 726.30,221.99 L 727.60,221.95 L 728.90,221.89 L 730.20,221.84 L 731.50,221.77 L 732.80,221.70 L 734.10,221.61 L 735.40,221.52 L 736.70,221.42 L 738.00,221.30 L 739.30,221.16 L 740.60,221.01 L 741.90,220.84 L 743.20,220.65 L 744.50,220.44 L 745.80,220.20 L 747.10,219.93 L 748.40,219.63 L 749.70,219.29 L 751.00,218.91 L 752.30,218.49 L 753.60,218.01 L 754.90,217.48 L 756.20,216.88 L 757.50,216.22 L 758.80,215.47 L 760.10,214.65 L 761.40,213.73 L 762.70,212.72 L 764.00,211.59 L 765.30,210.34 L 766.60,208.97 L 767.90,207.46 L 769.20,205.81 L 770.50,204.00 L 771.80,202.02 L 773.10,199.88 L 774.40,197.56 L 775.70,195.07 L 777.00,192.40 L 778.30,189.55 L 779.60,186.52 L 780.90,183.33 L 782.20,179.98 L 783.50,176.50 L 784.80,172.89 L 786.10,169.17 L 787.40,165.37 L 788.70,161.52 L 790.00,157.65 L 791.30,153.77 L 792.60,149.92 L 793.90,146.12 L 795.20,142.41 L 796.50,138.80 L 797.80,135.31 L 799.10,131.96 L 800.40,128.77 L 801.70,125.75 L 803.00,122.90 L 804.30,120.22 L 805.60,117.73 L 806.90,115.41 L 808.20,113.27 L 809.50,111.30 L 810.80,109.49 L 812.10,107.83 L 813.40,106.32 L 814.70,104.95 L 816.00,103.70 L 817.30,102.58 L 818.60,101.56 L 819.90,100.64 L 821.20,99.82 L 822.50,99.08 L 823.80,98.41 L 825.10,97.82 L 826.40,97.29 L 827.70,96.81 L 829.00,96.38 L 830.30,96.00 L 831.60,95.66 L 832.90,95.36 L 834.20,95.09 L 835.50,94.85 L 836.80,94.64 L 838.10,94.45 L 839.40,94.28 L 840.70,94.13 L 842.00,94.00 L 843.30,93.88 L 844.60,93.77 L 845.90,93.68 L 847.20,93.60 L 848.50,93.52 L 849.80,93.46 L 851.10,93.40 L 852.40,93.35 L 853.70,93.30 L 855.00,93.26 L 856.30,93.23 L 857.60,93.19 L 858.90,93.16 L 860.20,93.14 L 861.50,93.12 L 862.80,93.10 L 864.10,93.08 L 865.40,93.06 L 866.70,93.05 L 868.00,93.04 L 869.30,93.03 L 870.60,93.02 L 871.90,93.01 L 873.20,93.00 L 874.50,92.99 L 875.80,92.99 L 877.10,92.98 L 878.40,92.98 L 879.70,92.97 L 881.00,92.97 L 882.30,92.97 L 883.60,92.96 L 884.90,92.96 L 886.20,92.96 L 887.50,92.96 L 888.80,92.96 L 890.10,92.95 L 891.40,92.95 L 892.70,92.95 L 894.00,92.95 L 895.30,92.95 L 896.60,92.95 L 897.90,92.95 L 899.20,92.95 L 900.50,92.95 L 901.80,92.95 L 903.10,92.94 L 904.40,92.94 L 905.70,92.94 L 907.00,92.94 L 908.30,92.94 L 909.60,92.94 L 910.90,92.94 L 912.20,92.94 L 913.50,92.94 L 914.80,92.94 L 916.10,92.94 L 917.40,92.94 L 918.70,92.94 L 920.00,92.94" fill="none" stroke="#8B5CF6" stroke-width="2.5" stroke-linecap="round" />
<rect x="750" y="330" width="12" height="4" fill="#8B5CF6"/>
<text x="766" y="335" font-family="sans-serif" font-size="11" font-weight="600" fill="#4B5563">c=2 (拉高)</text>
<path d="M 660.00,222.35 L 661.30,222.35 L 662.60,222.35 L 663.90,222.35 L 665.20,222.35 L 666.50,222.35 L 667.80,222.35 L 669.10,222.35 L 670.40,222.35 L 671.70,222.35 L 673.00,222.35 L 674.30,222.35 L 675.60,222.35 L 676.90,222.35 L 678.20,222.36 L 679.50,222.36 L 680.80,222.36 L 682.10,222.36 L 683.40,222.36 L 684.70,222.36 L 686.00,222.36 L 687.30,222.36 L 688.60,222.36 L 689.90,222.36 L 691.20,222.36 L 692.50,222.36 L 693.80,222.36 L 695.10,222.36 L 696.40,222.36 L 697.70,222.37 L 699.00,222.37 L 700.30,222.37 L 701.60,222.37 L 702.90,222.37 L 704.20,222.38 L 705.50,222.38 L 706.80,222.38 L 708.10,222.39 L 709.40,222.39 L 710.70,222.40 L 712.00,222.40 L 713.30,222.41 L 714.60,222.41 L 715.90,222.42 L 717.20,222.43 L 718.50,222.44 L 719.80,222.45 L 721.10,222.46 L 722.40,222.48 L 723.70,222.49 L 725.00,222.51 L 726.30,222.53 L 727.60,222.56 L 728.90,222.58 L 730.20,222.61 L 731.50,222.64 L 732.80,222.68 L 734.10,222.72 L 735.40,222.77 L 736.70,222.82 L 738.00,222.88 L 739.30,222.95 L 740.60,223.02 L 741.90,223.11 L 743.20,223.20 L 744.50,223.31 L 745.80,223.43 L 747.10,223.56 L 748.40,223.71 L 749.70,223.88 L 751.00,224.07 L 752.30,224.29 L 753.60,224.53 L 754.90,224.79 L 756.20,225.09 L 757.50,225.42 L 758.80,225.79 L 760.10,226.20 L 761.40,226.66 L 762.70,227.17 L 764.00,227.73 L 765.30,228.36 L 766.60,229.04 L 767.90,229.80 L 769.20,230.63 L 770.50,231.53 L 771.80,232.52 L 773.10,233.59 L 774.40,234.75 L 775.70,235.99 L 777.00,237.33 L 778.30,238.76 L 779.60,240.27 L 780.90,241.86 L 782.20,243.54 L 783.50,245.28 L 784.80,247.09 L 786.10,248.94 L 787.40,250.84 L 788.70,252.77 L 790.00,254.71 L 791.30,256.64 L 792.60,258.57 L 793.90,260.47 L 795.20,262.32 L 796.50,264.13 L 797.80,265.87 L 799.10,267.55 L 800.40,269.14 L 801.70,270.66 L 803.00,272.08 L 804.30,273.42 L 805.60,274.66 L 806.90,275.82 L 808.20,276.89 L 809.50,277.88 L 810.80,278.79 L 812.10,279.61 L 813.40,280.37 L 814.70,281.05 L 816.00,281.68 L 817.30,282.24 L 818.60,282.75 L 819.90,283.21 L 821.20,283.62 L 822.50,283.99 L 823.80,284.32 L 825.10,284.62 L 826.40,284.89 L 827.70,285.12 L 829.00,285.34 L 830.30,285.53 L 831.60,285.70 L 832.90,285.85 L 834.20,285.98 L 835.50,286.10 L 836.80,286.21 L 838.10,286.30 L 839.40,286.39 L 840.70,286.46 L 842.00,286.53 L 843.30,286.59 L 844.60,286.64 L 845.90,286.69 L 847.20,286.73 L 848.50,286.77 L 849.80,286.80 L 851.10,286.83 L 852.40,286.86 L 853.70,286.88 L 855.00,286.90 L 856.30,286.92 L 857.60,286.93 L 858.90,286.95 L 860.20,286.96 L 861.50,286.97 L 862.80,286.98 L 864.10,286.99 L 865.40,287.00 L 866.70,287.00 L 868.00,287.01 L 869.30,287.02 L 870.60,287.02 L 871.90,287.03 L 873.20,287.03 L 874.50,287.03 L 875.80,287.04 L 877.10,287.04 L 878.40,287.04 L 879.70,287.04 L 881.00,287.04 L 882.30,287.05 L 883.60,287.05 L 884.90,287.05 L 886.20,287.05 L 887.50,287.05 L 888.80,287.05 L 890.10,287.05 L 891.40,287.05 L 892.70,287.05 L 894.00,287.05 L 895.30,287.05 L 896.60,287.06 L 897.90,287.06 L 899.20,287.06 L 900.50,287.06 L 901.80,287.06 L 903.10,287.06 L 904.40,287.06 L 905.70,287.06 L 907.00,287.06 L 908.30,287.06 L 909.60,287.06 L 910.90,287.06 L 912.20,287.06 L 913.50,287.06 L 914.80,287.06 L 916.10,287.06 L 917.40,287.06 L 918.70,287.06 L 920.00,287.06" fill="none" stroke="#EC4899" stroke-width="2.5" stroke-linecap="round" />
<rect x="835" y="330" width="12" height="4" fill="#EC4899"/>
<text x="851" y="335" font-family="sans-serif" font-size="11" font-weight="600" fill="#4B5563">c=-1 (倒置)</text></svg>